<svg width="211" height="41" viewBox="0 0 211 41" fill="none" xmlns="http://www.w3.org/2000/svg">
<path d="M16.9378 40.9766C13.6783 40.9766 10.9814 40.7826 8.84722 40.3945C6.75182 40.0065 5.10267 39.3662 3.89976 38.4738C2.69685 37.5425 1.82377 36.3008 1.28052 34.7486C0.737268 33.1577 0.388036 31.1981 0.232821 28.8699C0.0776072 26.5417 0 23.7478 0 20.4883C0 17.2288 0.0776072 14.4349 0.232821 12.1067C0.388036 9.7785 0.737268 7.83832 1.28052 6.28618C1.82377 4.69523 2.69685 3.45352 3.89976 2.56104C5.10267 1.62975 6.75182 0.970088 8.84722 0.582052C10.9814 0.194017 13.6783 0 16.9378 0C20.1973 0 22.8747 0.194017 24.9701 0.582052C27.1043 0.970088 28.7729 1.62975 29.9758 2.56104C31.1787 3.45352 32.0518 4.69523 32.595 6.28618C33.1771 7.83832 33.5457 9.7785 33.7009 12.1067C33.8561 14.4349 33.9337 17.2288 33.9337 20.4883C33.9337 23.7478 33.8561 26.5417 33.7009 28.8699C33.5457 31.1981 33.1771 33.1577 32.595 34.7486C32.0518 36.3008 31.1787 37.5425 29.9758 38.4738C28.7729 39.3662 27.1043 40.0065 24.9701 40.3945C22.8747 40.7826 20.1973 40.9766 16.9378 40.9766ZM16.9378 34.2248C18.6451 34.2248 20.0227 34.1666 21.0704 34.0502C22.1569 33.9337 23.0105 33.6621 23.6314 33.2353C24.2522 32.8084 24.6985 32.11 24.9701 31.1399C25.2805 30.1698 25.4746 28.8311 25.5522 27.1237C25.6298 25.4164 25.6686 23.2045 25.6686 20.4883C25.6686 17.772 25.6298 15.5602 25.5522 13.8529C25.4746 12.1455 25.2805 10.8068 24.9701 9.83671C24.6985 8.86662 24.2522 8.16815 23.6314 7.74132C23.0105 7.31448 22.1569 7.04285 21.0704 6.92644C20.0227 6.81003 18.6451 6.75182 16.9378 6.75182C15.2692 6.75182 13.8917 6.81003 12.8052 6.92644C11.7575 7.04285 10.9232 7.31448 10.3024 7.74132C9.6815 8.16815 9.21585 8.86662 8.90542 9.83671C8.6338 10.8068 8.45918 12.1455 8.38158 13.8529C8.30397 15.5602 8.26516 17.772 8.26516 20.4883C8.26516 23.2045 8.30397 25.4164 8.38158 27.1237C8.45918 28.8311 8.6338 30.1698 8.90542 31.1399C9.21585 32.11 9.6815 32.8084 10.3024 33.2353C10.9232 33.6621 11.7575 33.9337 12.8052 34.0502C13.8917 34.1666 15.2692 34.2248 16.9378 34.2248Z" fill="white"/>
<path d="M41.6769 40.5109V10.8262H48.8943L49.1272 14.5513H49.5928C50.1361 13.5813 50.7957 12.7858 51.5718 12.1649C52.3867 11.5441 53.3762 11.0978 54.5403 10.8262C55.7432 10.5158 57.1013 10.3606 58.6146 10.3606C60.6324 10.3606 62.2428 10.6128 63.4457 11.1172C64.6874 11.6217 65.6381 12.3589 66.2978 13.329C66.9574 14.2991 67.3843 15.502 67.5783 16.9378C67.8111 18.3735 67.9275 20.0421 67.9275 21.9434V40.5109H60.2444V24.7955C60.2444 23.0105 60.1862 21.5942 60.0698 20.5465C59.9534 19.4988 59.7205 18.7227 59.3713 18.2183C59.0221 17.7138 58.4982 17.4034 57.7998 17.287C57.1013 17.1318 56.17 17.0542 55.0059 17.0542C53.7642 17.0542 52.7553 17.2094 51.9792 17.5198C51.242 17.7914 50.6793 18.2571 50.2913 18.9167C49.942 19.5376 49.6898 20.3719 49.5346 21.4196C49.4182 22.4285 49.36 23.6702 49.36 25.1447V40.5109H41.6769Z" fill="white"/>
<path d="M89.3921 40.9766C86.7535 40.9766 84.5611 40.802 82.8149 40.4527C81.0687 40.1035 79.6718 39.5603 78.6241 38.823C77.6152 38.0469 76.8391 37.0768 76.2959 35.9127C75.7914 34.7098 75.4616 33.2741 75.3064 31.6055C75.19 29.8982 75.1318 27.9386 75.1318 25.7268C75.1318 23.0881 75.2676 20.7987 75.5392 18.8585C75.8108 16.9184 76.3735 15.3274 77.2272 14.0857C78.1197 12.8052 79.4778 11.8739 81.3016 11.2918C83.1641 10.671 85.6282 10.3606 88.6936 10.3606C91.1771 10.3606 93.1949 10.5546 94.747 10.9426C96.2991 11.3306 97.5215 11.9127 98.4139 12.6888C99.3452 13.4648 100.005 14.4737 100.393 15.7155C100.82 16.9184 101.091 18.3541 101.208 20.0227C101.324 21.6912 101.382 23.5926 101.382 25.7268V27.9968H82.8149C82.8149 29.4713 82.8731 30.6742 82.9895 31.6055C83.1447 32.498 83.4746 33.1771 83.979 33.6427C84.5223 34.1084 85.3565 34.4188 86.4818 34.574C87.6459 34.7292 89.2175 34.8068 91.1965 34.8068C92.0113 34.8068 92.9232 34.7874 93.9321 34.7486C94.9798 34.7098 96.0469 34.6516 97.1334 34.574C98.2587 34.4964 99.287 34.4188 100.218 34.3412V40.0453C99.3646 40.2393 98.3169 40.3945 97.0752 40.5109C95.8723 40.6662 94.5918 40.7826 93.2337 40.8602C91.9143 40.9378 90.6338 40.9766 89.3921 40.9766ZM94.0485 24.1552V23.2239C94.0485 21.7106 93.9515 20.5077 93.7575 19.6152C93.6023 18.6839 93.3113 17.9855 92.8844 17.5198C92.4964 17.0542 91.9531 16.7632 91.2547 16.6467C90.5562 16.4915 89.6637 16.4139 88.5772 16.4139C87.2967 16.4139 86.2878 16.5109 85.5505 16.7049C84.8133 16.8602 84.2506 17.19 83.8626 17.6944C83.4746 18.1601 83.2029 18.8585 83.0477 19.7898C82.8925 20.6823 82.8149 21.827 82.8149 23.2239H95.0962L94.0485 24.1552Z" fill="white"/>
<path d="M163.643 40.616C161.004 40.616 158.812 40.4414 157.066 40.0922C155.32 39.743 153.923 39.1997 152.875 38.4624C151.866 37.6864 151.09 36.7163 150.547 35.5522C150.042 34.3493 149.713 32.9135 149.557 31.245C149.441 29.5376 149.383 27.578 149.383 25.3662C149.383 22.7276 149.519 20.4382 149.79 18.498C150.062 16.5578 150.625 14.9669 151.478 13.7251C152.371 12.4446 153.729 11.5133 155.553 10.9313C157.415 10.3104 159.879 10 162.945 10C165.428 10 167.446 10.194 168.998 10.5821C170.55 10.9701 171.772 11.5521 172.665 12.3282C173.596 13.1043 174.256 14.1132 174.644 15.3549C175.071 16.5578 175.342 17.9935 175.459 19.6621C175.575 21.3306 175.633 23.232 175.633 25.3662V27.6362H157.066C157.066 29.1108 157.124 30.3137 157.241 31.245C157.396 32.1374 157.726 32.8165 158.23 33.2822C158.773 33.7478 159.608 34.0582 160.733 34.2134C161.897 34.3687 163.469 34.4463 165.447 34.4463C166.262 34.4463 167.174 34.4269 168.183 34.3881C169.231 34.3493 170.298 34.291 171.384 34.2134C172.51 34.1358 173.538 34.0582 174.469 33.9806V39.6847C173.616 39.8788 172.568 40.034 171.326 40.1504C170.123 40.3056 168.843 40.422 167.485 40.4996C166.165 40.5772 164.885 40.616 163.643 40.616ZM168.3 23.7947V22.8634C168.3 21.35 168.203 20.1471 168.009 19.2547C167.853 18.3234 167.562 17.6249 167.135 17.1593C166.747 16.6936 166.204 16.4026 165.506 16.2862C164.807 16.131 163.915 16.0534 162.828 16.0534C161.548 16.0534 160.539 16.1504 159.802 16.3444C159.064 16.4996 158.502 16.8294 158.114 17.3339C157.726 17.7995 157.454 18.498 157.299 19.4293C157.144 20.3218 157.066 21.4665 157.066 22.8634H169.347L168.3 23.7947Z" fill="white"/>
<path d="M179.803 40.1504L190.164 25.0752L180.153 10.4656H188.709L194.937 19.6621H195.286L201.456 10.4656H209.604L199.651 25.017L210.07 40.1504H201.456L194.879 30.4301H194.471L187.952 40.1504H179.803Z" fill="white"/>
<path d="M114.899 25.3985L105.383 24.9597V17.795C112.658 16.3177 114.761 14.0153 114.766 7.60327C114.766 6.73384 114.723 5.86038 114.766 4.99094C114.933 2.6322 116.693 1.06239 119.453 1.04226C126.505 0.985912 133.555 0.985912 140.603 1.04226C143.729 1.07044 145.361 2.71673 145.361 5.73157C145.39 15.9286 145.39 26.115 145.361 36.2906C145.361 36.5602 145.361 36.8299 145.361 37.0956C145.119 39.4825 143.415 40.9436 140.603 40.9638C133.624 41.0121 126.655 41.0121 119.696 40.9638C116.636 40.9396 114.828 39.394 114.79 36.7937C114.733 32.9779 114.79 29.1459 114.823 25.3301H122.353V35.5946H138.11L138.089 6.40541H122.959C122.353 11.8108 121.14 16.6757 114.899 17.8272V25.3985Z" fill="#FFB800"/>
</svg>
