<svg width="17" height="16" viewBox="0 0 17 16" fill="none" xmlns="http://www.w3.org/2000/svg">
<path fill-rule="evenodd" clip-rule="evenodd" d="M8.50016 13.3333C11.4457 13.3333 13.8335 10.9454 13.8335 7.99992C13.8335 5.0544 11.4457 2.66659 8.50016 2.66659C5.55464 2.66659 3.16683 5.0544 3.16683 7.99992C3.16683 10.9454 5.55464 13.3333 8.50016 13.3333ZM8.50016 14.6666C12.1821 14.6666 15.1668 11.6818 15.1668 7.99992C15.1668 4.31802 12.1821 1.33325 8.50016 1.33325C4.81826 1.33325 1.8335 4.31802 1.8335 7.99992C1.8335 11.6818 4.81826 14.6666 8.50016 14.6666Z" fill="#777E91"/>
<path d="M7.8335 4.66667C7.8335 4.29848 8.13197 4 8.50016 4C8.86835 4 9.16683 4.29848 9.16683 4.66667C10.2714 4.66667 11.1668 5.5621 11.1668 6.66667C11.1668 7.03486 10.8684 7.33333 10.5002 7.33333C10.132 7.33333 9.8335 7.03486 9.8335 6.66667C9.8335 6.29848 9.53502 6 9.16683 6H7.66244C7.38872 6 7.16683 6.22189 7.16683 6.49561C7.16683 6.70894 7.30334 6.89833 7.50571 6.96579L9.91625 7.7693C10.6631 8.01825 11.1668 8.71716 11.1668 9.50439C11.1668 10.5145 10.348 11.3333 9.33788 11.3333H9.16683C9.16683 11.7015 8.86835 12 8.50016 12C8.13197 12 7.8335 11.7015 7.8335 11.3333C6.72893 11.3333 5.8335 10.4379 5.8335 9.33333C5.8335 8.96514 6.13197 8.66667 6.50016 8.66667C6.86835 8.66667 7.16683 8.96514 7.16683 9.33333C7.16683 9.70152 7.46531 10 7.8335 10H9.33788C9.6116 10 9.8335 9.77811 9.8335 9.50439C9.8335 9.29106 9.69699 9.10167 9.49461 9.03421L7.08408 8.2307C6.33724 7.98176 5.8335 7.28284 5.8335 6.49561C5.8335 5.48551 6.65234 4.66667 7.66244 4.66667H7.8335Z" fill="#777E91"/>
</svg>
