<svg width="14" height="14" viewBox="0 0 14 14" fill="none" xmlns="http://www.w3.org/2000/svg">
<path d="M0.5 4.08333C0.5 4.67239 0.532215 5.11162 0.606056 5.44388C0.678636 5.77046 0.784614 5.96225 0.911181 6.08882C1.03775 6.21538 1.22954 6.32136 1.55611 6.39394C1.88837 6.46778 2.3276 6.5 2.91665 6.5C3.5057 6.5 3.94493 6.46778 4.27718 6.39394C4.60376 6.32136 4.79555 6.21538 4.92212 6.08882C5.04868 5.96225 5.15466 5.77046 5.22724 5.44388C5.30108 5.11162 5.3333 4.67239 5.3333 4.08333C5.3333 3.49428 5.30108 3.05504 5.22724 2.72279C5.15466 2.39621 5.04868 2.20442 4.92212 2.07785C4.79555 1.95128 4.60376 1.8453 4.27718 1.77272C3.94493 1.69888 3.5057 1.66667 2.91665 1.66667C2.3276 1.66667 1.88837 1.69888 1.55611 1.77272C1.22954 1.8453 1.03775 1.95128 0.911181 2.07785C0.784614 2.20442 0.678636 2.39621 0.606056 2.72279C0.532215 3.05504 0.5 3.49428 0.5 4.08333Z" stroke="white" stroke-linecap="round" stroke-linejoin="round"/>
<path d="M0.5 11.0833C0.5 11.6724 0.532215 12.1116 0.606056 12.4439C0.678636 12.7705 0.784614 12.9622 0.911181 13.0888C1.03775 13.2154 1.22954 13.3214 1.55611 13.3939C1.88837 13.4678 2.3276 13.5 2.91665 13.5C3.5057 13.5 3.94493 13.4678 4.27718 13.3939C4.60376 13.3214 4.79555 13.2154 4.92212 13.0888C5.04868 12.9622 5.15466 12.7705 5.22724 12.4439C5.30108 12.1116 5.3333 11.6724 5.3333 11.0833C5.3333 10.4943 5.30108 10.055 5.22724 9.72279C5.15466 9.39621 5.04868 9.20442 4.92212 9.07785C4.79555 8.95128 4.60376 8.8453 4.27718 8.77272C3.94493 8.69888 3.5057 8.66667 2.91665 8.66667C2.3276 8.66667 1.88837 8.69888 1.55611 8.77272C1.22954 8.8453 1.03775 8.95128 0.911181 9.07785C0.784614 9.20442 0.678636 9.39621 0.606056 9.72279C0.532215 10.055 0.5 10.4943 0.5 11.0833Z" stroke="white" stroke-linecap="round" stroke-linejoin="round"/>
<path d="M7.5 3.5C7.5 4.20915 7.53865 4.74489 7.62965 5.15435C7.71939 5.55813 7.85325 5.80783 8.02271 5.97729C8.19217 6.14675 8.44187 6.28061 8.84565 6.37035C9.25511 6.46135 9.79085 6.5 10.5 6.5C11.2092 6.5 11.7449 6.46135 12.1543 6.37035C12.5581 6.28061 12.8078 6.14675 12.9773 5.97729C13.1468 5.80783 13.2806 5.55813 13.3703 5.15435C13.4613 4.74489 13.5 4.20915 13.5 3.5C13.5 2.79085 13.4613 2.25511 13.3703 1.84565C13.2806 1.44187 13.1468 1.19217 12.9773 1.02271C12.8078 0.853249 12.5581 0.719388 12.1543 0.62965C11.7449 0.538651 11.2092 0.5 10.5 0.5C9.79085 0.5 9.25511 0.538651 8.84565 0.62965C8.44187 0.719388 8.19217 0.853249 8.02271 1.02271C7.85325 1.19217 7.71939 1.44187 7.62965 1.84565C7.53865 2.25511 7.5 2.79085 7.5 3.5Z" stroke="white" stroke-linecap="round" stroke-linejoin="round"/>
<path d="M7.5 11.0833C7.5 11.6724 7.53222 12.1116 7.60606 12.4439C7.67864 12.7705 7.78462 12.9622 7.91118 13.0888C8.03775 13.2154 8.22954 13.3214 8.55612 13.3939C8.88837 13.4678 9.3276 13.5 9.91666 13.5C10.5057 13.5 10.9449 13.4678 11.2772 13.3939C11.6038 13.3214 11.7956 13.2154 11.9221 13.0888C12.0487 12.9622 12.1547 12.7705 12.2273 12.4439C12.3011 12.1116 12.3333 11.6724 12.3333 11.0833C12.3333 10.4943 12.3011 10.055 12.2273 9.72279C12.1547 9.39621 12.0487 9.20442 11.9221 9.07785C11.7956 8.95128 11.6038 8.8453 11.2772 8.77272C10.9449 8.69888 10.5057 8.66667 9.91666 8.66667C9.3276 8.66667 8.88837 8.69888 8.55612 8.77272C8.22954 8.8453 8.03775 8.95128 7.91118 9.07785C7.78462 9.20442 7.67864 9.39621 7.60606 9.72279C7.53222 10.055 7.5 10.4943 7.5 11.0833Z" stroke="white" stroke-linecap="round" stroke-linejoin="round"/>
</svg>
