<svg width="24" height="27" viewBox="0 0 24 27" fill="none" xmlns="http://www.w3.org/2000/svg">
<g clip-path="url(#clip0_1_2)">
<path d="M15.673 12.825C15.6898 12.444 15.5546 12.072 15.2971 11.7907C15.0396 11.5094 14.681 11.3419 14.3 11.325C14.111 11.3328 13.9254 11.3779 13.7539 11.4576C13.5823 11.5372 13.4282 11.65 13.3003 11.7893C13.1724 11.9286 13.0732 12.0918 13.0085 12.2696C12.9437 12.4473 12.9147 12.636 12.923 12.825C12.9086 13.206 13.0452 13.5773 13.303 13.8582C13.5609 14.1391 13.9191 14.3068 14.3 14.325C14.681 14.3081 15.0396 14.1406 15.2971 13.8593C15.5546 13.578 15.6898 13.206 15.673 12.825V12.825ZM9.373 11.325C9.18401 11.3328 8.99843 11.3779 8.82688 11.4576C8.65534 11.5372 8.50119 11.65 8.37328 11.7893C8.24537 11.9286 8.1462 12.0918 8.08146 12.2696C8.01672 12.4473 7.98768 12.636 7.996 12.825C7.98157 13.2053 8.11759 13.5761 8.37459 13.8568C8.63158 14.1376 8.98885 14.3058 9.369 14.325C9.55798 14.3172 9.74356 14.2721 9.91511 14.1924C10.0867 14.1128 10.2408 14 10.3687 13.8607C10.4966 13.7213 10.5958 13.5581 10.6605 13.3804C10.7253 13.2027 10.7543 13.014 10.746 12.825C10.7554 12.6358 10.7271 12.4466 10.6628 12.2684C10.5984 12.0902 10.4993 11.9266 10.3712 11.787C10.2431 11.6475 10.0885 11.5348 9.91646 11.4554C9.74441 11.3761 9.55832 11.3318 9.369 11.325H9.373ZM23.629 2.77999C23.6299 2.41562 23.559 2.05464 23.4204 1.71766C23.2818 1.38069 23.0782 1.07433 22.8211 0.816072C22.5641 0.557819 22.2587 0.352736 21.9223 0.21254C21.586 0.0723429 21.2254 -0.000220126 20.861 -0.00100708H2.768C2.40354 -0.0002203 2.04281 0.0723758 1.70643 0.212635C1.37004 0.352894 1.06459 0.558066 0.807529 0.816425C0.55047 1.07478 0.346842 1.38127 0.208281 1.71836C0.069721 2.05545 -0.00105562 2.41654 -3.70341e-06 2.78099V21.033C-0.000924022 21.3974 0.0699497 21.7583 0.208569 22.0953C0.347188 22.4323 0.550837 22.7387 0.807883 22.9969C1.06493 23.2552 1.37034 23.4602 1.70666 23.6004C2.04298 23.7406 2.40362 23.8132 2.768 23.814H18.077L17.361 21.314C21.312 24.987 20.224 23.992 23.625 26.998L23.629 2.77999ZM19.782 15.58C19.3126 16.2326 18.6909 16.7607 17.971 17.1183C17.251 17.4759 16.4546 17.6523 15.651 17.632C15.651 17.632 15.165 17.052 14.76 16.538C15.7373 16.3067 16.6015 15.7375 17.2 14.931C16.7146 15.2555 16.1939 15.5238 15.648 15.731C14.2961 16.2815 12.8387 16.5244 11.3814 16.4421C9.92404 16.3597 8.50326 15.9543 7.222 15.255C7.195 15.237 6.867 15.055 6.668 14.917C7.24594 15.7072 8.08175 16.2706 9.031 16.51C8.631 17.023 8.131 17.631 8.131 17.631C7.32849 17.6531 6.53286 17.4775 5.81421 17.1197C5.09557 16.7618 4.47596 16.2327 4.01 15.579C4.05376 12.842 4.71848 10.1507 5.954 7.70799C7.04115 6.85439 8.36646 6.35928 9.747 6.29099L9.882 6.45299C8.58281 6.77557 7.37072 7.3806 6.332 8.22499C6.332 8.22499 6.632 8.06299 7.132 7.83399C8.73154 7.12589 10.4718 6.793 12.2198 6.86077C13.9678 6.92854 15.6771 7.39518 17.217 8.22499C16.2304 7.42175 15.0844 6.83719 13.855 6.50999L14.044 6.29399C15.4245 6.36228 16.7498 6.85739 17.837 7.71099C19.071 10.153 19.7347 12.8432 19.778 15.579L19.782 15.58Z" fill="black"/>
</g>
<defs>
<clipPath id="clip0_1_2">
<rect width="23.625" height="27" fill="white"/>
</clipPath>
</defs>
</svg>
