<svg width="28" height="28" viewBox="0 0 28 28" fill="none" xmlns="http://www.w3.org/2000/svg">
<path d="M14 2.33333C7.5565 2.33333 2.33334 7.5565 2.33334 14C2.33334 20.4435 7.5565 25.6667 14 25.6667C20.4435 25.6667 25.6667 20.4435 25.6667 14C25.6667 7.5565 20.4435 2.33333 14 2.33333Z" fill="url(#paint0_linear_0_3)"/>
<path d="M15.5791 17.0923H18.5984L19.0727 14.0251H15.5791V12.3486C15.5791 11.0746 15.9956 9.94467 17.1873 9.94467H19.1024V7.26834C18.7658 7.22284 18.0542 7.12367 16.7096 7.12367C13.9014 7.12367 12.2552 8.60651 12.2552 11.9852V14.0257H9.36833V17.0928H12.2547V25.5232C12.8263 25.6083 13.4056 25.6667 14 25.6667C14.5372 25.6667 15.0617 25.6177 15.5791 25.5477V17.0923Z" fill="white"/>
<defs>
<linearGradient id="paint0_linear_0_3" x1="5.82925" y1="5.82924" x2="23.6921" y2="23.6921" gradientUnits="userSpaceOnUse">
<stop stop-color="#2AA4F4"/>
<stop offset="1" stop-color="#007AD9"/>
</linearGradient>
</defs>
</svg>
