<svg width="32" height="32" viewBox="0 0 32 32" fill="none" xmlns="http://www.w3.org/2000/svg">
<g clip-path="url(#clip0_1_4)">
<path d="M11.749 23.535C11.749 23.414 11.612 23.329 11.449 23.345C11.296 23.345 11.175 23.429 11.175 23.535C11.175 23.656 11.296 23.741 11.475 23.725C11.627 23.724 11.749 23.64 11.749 23.535V23.535ZM10.109 23.298C10.072 23.403 10.178 23.525 10.336 23.556C10.3935 23.5843 10.4597 23.5892 10.5207 23.5696C10.5818 23.55 10.6328 23.5075 10.663 23.451C10.695 23.346 10.594 23.224 10.436 23.177C10.3761 23.1554 10.3105 23.1556 10.2507 23.1775C10.1909 23.1995 10.1407 23.2418 10.109 23.297V23.298ZM12.439 23.203C12.286 23.24 12.181 23.34 12.196 23.461C12.212 23.566 12.349 23.635 12.507 23.598C12.665 23.561 12.765 23.461 12.75 23.355C12.735 23.249 12.592 23.192 12.439 23.203ZM15.909 3.00301C14.2078 2.96722 12.5168 3.27516 10.9374 3.9084C9.35799 4.54163 7.92264 5.48712 6.71731 6.68825C5.51199 7.88937 4.56149 9.32141 3.92275 10.8986C3.284 12.4758 2.97015 14.1657 3 15.867C2.97779 18.6415 3.82903 21.3527 5.43316 23.6166C7.03729 25.8804 9.313 27.5823 11.938 28.481C12.613 28.602 12.85 28.181 12.85 27.843C12.85 27.516 12.834 25.713 12.834 24.605C12.834 24.605 9.143 25.396 8.367 23.034C8.367 23.034 7.767 21.499 6.901 21.104C6.901 21.104 5.693 20.276 6.985 20.292C7.40575 20.3484 7.80804 20.5002 8.16109 20.736C8.51415 20.9717 8.80862 21.285 9.022 21.652C9.19826 21.9805 9.43861 22.2703 9.72882 22.5042C10.019 22.7382 10.3532 22.9116 10.7116 23.0141C11.07 23.1167 11.4453 23.1463 11.8154 23.1013C12.1854 23.0563 12.5427 22.9375 12.866 22.752C12.9342 22.0801 13.2323 21.4524 13.71 20.975C10.762 20.648 7.788 20.221 7.788 15.148C7.75894 14.5711 7.85518 13.9947 8.0701 13.4586C8.28502 12.9224 8.61352 12.4391 9.033 12.042C8.63343 10.8733 8.68225 9.59778 9.17 8.46301C10.27 8.12001 12.809 9.88701 12.809 9.88701C13.8877 9.58879 15.0018 9.43808 16.121 9.43901C17.2402 9.43808 18.3543 9.58879 19.433 9.88701C19.433 9.88701 21.97 8.11501 23.072 8.46301C23.5604 9.59832 23.6093 10.8747 23.209 12.044C23.6443 12.4347 23.9909 12.914 24.2257 13.4497C24.4604 13.9854 24.5778 14.5652 24.57 15.15C24.57 20.239 21.464 20.645 18.516 20.977C18.8337 21.2958 19.0787 21.6795 19.234 22.1019C19.3894 22.5243 19.4515 22.9753 19.416 23.424C19.411 25.203 19.4 27.403 19.4 27.833C19.4 28.176 19.643 28.592 20.312 28.471C22.9282 27.5738 25.1934 25.8716 26.783 23.6083C28.3726 21.3449 29.205 18.6365 29.161 15.871C29.1533 14.1508 28.8024 12.4494 28.1289 10.8665C27.4554 9.28365 26.4728 7.85106 25.2386 6.65269C24.0045 5.45432 22.5437 4.51426 20.9416 3.88757C19.3396 3.26087 17.6287 2.96015 15.909 3.00301V3.00301ZM8.126 21.188C8.057 21.241 8.073 21.362 8.163 21.462C8.247 21.546 8.369 21.583 8.437 21.515C8.506 21.462 8.49 21.341 8.4 21.241C8.316 21.156 8.194 21.119 8.126 21.188ZM7.556 20.761C7.519 20.83 7.572 20.914 7.677 20.967C7.69393 20.9796 7.71323 20.9886 7.73374 20.9936C7.75425 20.9986 7.77555 20.9993 7.79636 20.9959C7.81718 20.9924 7.83708 20.9848 7.85489 20.9735C7.8727 20.9622 7.88804 20.9474 7.9 20.93C7.937 20.861 7.884 20.777 7.779 20.724C7.678 20.692 7.593 20.708 7.556 20.761ZM9.265 22.638C9.181 22.707 9.212 22.865 9.334 22.965C9.455 23.086 9.608 23.102 9.677 23.018C9.746 22.949 9.714 22.791 9.608 22.691C9.492 22.57 9.333 22.554 9.265 22.638ZM8.665 21.863C8.581 21.916 8.581 22.053 8.665 22.174C8.749 22.295 8.892 22.348 8.965 22.295C9.00611 22.2505 9.02894 22.1921 9.02894 22.1315C9.02894 22.0709 9.00611 22.0125 8.965 21.968C8.885 21.847 8.748 21.794 8.664 21.863H8.665Z" fill="black"/>
</g>
<defs>
<clipPath id="clip0_1_4">
<rect width="32" height="32" fill="white"/>
</clipPath>
</defs>
</svg>
