<svg width="25" height="25" viewBox="0 0 25 25" fill="none" xmlns="http://www.w3.org/2000/svg">
<path d="M12.6531 24.2C19.0551 24.2 24.2449 18.8274 24.2449 12.2C24.2449 5.57257 19.0551 0.199982 12.6531 0.199982C6.25107 0.199982 1.06123 5.57257 1.06123 12.2C1.06123 18.8274 6.25107 24.2 12.6531 24.2Z" fill="#FFBC00"/>
<path d="M18.7871 0.321369H18.99L18.8609 0.48077H18.7871V0.321369M3.8471 0.708516V0.890737L3.36746 1.61961H3.29368L3.21989 1.05025C3.50272 0.822498 3.71179 0.708624 3.84711 0.708624M21.3347 0.959189C21.7529 0.959209 21.9865 1.28567 22.0357 1.93852L21.6852 5.01354H21.8143L22.091 4.78579H22.1648V4.85411C21.7835 5.14264 21.4146 5.93208 21.0577 7.22328C20.9223 8.33217 20.6949 9.35682 20.3751 10.2983C20.0922 11.2701 19.9508 12.1663 19.9508 12.9863L19.4158 14.6037C19.4158 14.7404 19.6187 14.877 20.0245 15.0137C19.9507 15.3326 19.8401 15.492 19.6925 15.492V15.5831H19.8216V15.6515C19.8216 15.8185 19.6125 15.902 19.1944 15.902L19.2682 15.9931V16.312H19.1391C19.2251 16.6309 19.4096 16.7903 19.6924 16.7903V16.9497H19.1391V17.0408C19.3235 17.0408 19.4158 17.1775 19.4158 17.4508L18.6409 17.7697L18.7147 17.8608V17.9291C18.7147 18.0354 18.6225 18.0885 18.438 18.0885V18.1796C18.6717 18.1796 18.7885 18.2328 18.7886 18.339C18.4565 18.4757 18.0199 19.1514 17.4785 20.3659C16.9251 21.4439 16.4457 21.9834 16.0398 21.9834H15.8922C15.5847 21.7404 15.3326 20.9357 15.1358 19.5695C14.3488 17.4893 13.9553 16.2674 13.9553 15.9027C13.9553 14.9613 13.7032 13.959 13.199 12.8959C13.0637 12.4252 12.9714 11.8331 12.9223 11.1196L12.5903 11.0285C11.754 12.5926 11.3173 13.8145 11.2802 14.6953C11.0465 15.2115 10.862 15.834 10.7268 16.5633C11.2311 16.7304 11.4831 16.8898 11.4831 17.0416V17.1327C11.0896 17.072 10.8129 16.9581 10.6531 16.7911C10.4809 17.2011 10.2534 18.3403 9.97048 20.2073C9.74914 21.0728 9.47236 21.506 9.1404 21.506C8.206 21.1264 7.42445 20.5038 6.79749 19.6379C6.69913 19.6379 6.53919 19.2051 6.31785 18.3393C6.18261 18.3393 6.0903 17.9065 6.04116 17.0406C5.57387 15.8112 5.25409 14.4059 5.08172 12.8268V10.4577H5.00793L4.67588 10.5488V10.4577C4.67588 10.3514 4.78659 10.2983 5.00793 10.2983L4.93415 8.93135V7.86085L4.39916 4.44464V2.9871C4.63284 2.07611 5.03864 1.62019 5.61681 1.62019H9.49086V1.77959C9.18342 1.7948 8.97435 1.8783 8.86364 2.03016C8.62995 1.86318 8.40248 1.77959 8.18106 1.77959H7.42473L7.00045 1.84792L6.92666 1.77959H6.87133L6.31794 1.84792L6.04125 1.77959L5.8383 1.84792L5.61697 1.77959C6.5151 2.99403 7.04361 4.01975 7.20338 4.85461H7.8306V5.01401H7.35096V5.19623C7.53542 5.89472 7.67075 6.24391 7.75676 6.24391H7.90435L8.2364 6.15281L8.31018 6.24391L8.38397 6.15281L8.45775 6.24391V6.31223C8.2118 6.49445 8.04573 6.74502 7.95972 7.06382H7.90438V7.22322H8.03349C8.20569 9.75872 8.52539 11.6801 8.99293 12.9851L9.26963 13.2129H9.41721C9.60168 13.2129 9.98908 12.3246 10.5796 10.5484C10.9609 9.74369 11.2376 9.03752 11.4097 8.42977L11.3359 8.17921C11.7172 7.58702 12.1107 7.29093 12.5164 7.29093H12.6455C12.9037 7.29094 13.0883 7.45801 13.1989 7.79195C13.5432 8.29308 13.8199 9.04477 14.029 10.047L15.0618 12.4162C15.1971 12.5833 15.2648 12.7731 15.2648 12.9856C15.646 13.8814 15.9904 14.474 16.2976 14.7619H16.519C16.7772 14.7619 17.1216 13.653 17.5518 11.4363C17.6256 11.4363 17.8285 10.8441 18.1606 9.65999V9.56889L16.9982 9.40949L16.7215 9.50059H16.371V9.31837L17.0719 9.25004H18.4373C18.966 7.29137 19.452 5.77306 19.895 4.6951C20.0426 2.4784 20.2454 1.36952 20.5037 1.36952L21.3338 0.95955M17.4045 1.21012C17.3307 1.42272 17.1708 1.52903 16.9249 1.52903V1.36962L17.4045 1.21022M10.45 1.62019H12.3128V1.77959L11.8885 1.84792L11.4827 1.77959L11.1322 1.93899L11.0031 1.77959H10.4497V1.62019M0.74297 1.9391H0.945913L1.07502 2.0985V2.1896L0.669221 2.66791V3.07788H0.521634V2.82732L0.595419 2.75899V2.66789L0.244888 2.25792C0.330979 2.04532 0.496969 1.93912 0.742919 1.93902M14.3012 2.91835H14.5042V2.98667C14.5042 3.09298 14.4365 3.14608 14.3012 3.14608L14.2274 3.23717V3.32827L14.0245 3.23717V3.07777L14.3012 2.91837M13.2683 3.80665V3.89775C13.2683 4.01919 12.9732 4.14831 12.3832 4.2849V4.1255L12.789 3.89775L12.8628 3.96607H12.9181L13.2686 3.80667M1.22159 4.6266V4.69493L1.074 4.85433L1.01866 4.786V4.69491L1.074 4.62658H1.22159M11.2737 4.62658V4.69491C11.0154 4.9379 10.5974 5.15808 10.0189 5.35544V5.19604C10.1173 5.19605 10.1665 5.11254 10.1665 4.94547L11.2736 4.62656M14.7789 5.42368L14.8527 5.51478V5.5831L14.7236 5.76532H14.6498L14.5023 5.5831V5.51478L14.7789 5.42368ZM17.3248 5.51478H17.3986V5.5831L17.2695 5.76532H17.1957V5.67422L17.3248 5.51482M16.1624 6.65356L16.4391 6.8813C16.3899 7.04838 16.2546 7.13187 16.0333 7.13187L15.8857 6.8813C15.8857 6.8054 15.978 6.72947 16.1624 6.65356ZM17.8222 7.70123L17.8776 7.79233V7.86066L17.8222 7.95176H17.6746V7.86066L17.8222 7.70126M15.203 8.52119V8.58951L14.8524 8.93113H14.6495V8.84004C14.6495 8.70334 14.834 8.59715 15.2029 8.52113M3.76899 11.6868H3.84278V11.7551C3.65832 12.2562 3.49847 12.5599 3.36314 12.6661H3.21556V12.3245L3.76894 11.6867M12.7934 15.49H12.8672V15.6494L12.3138 15.991L12.24 15.8999V15.7405L12.7934 15.49M5.212 16.5605H5.3411L5.56244 17.4487H5.41485L5.21191 16.6288V16.5605M12.5904 17.6082H12.6457L12.8671 17.8587L12.7933 17.927H12.7195L12.5904 17.6993V17.6082" fill="white"/>
</svg>
