<svg width="27" height="27" viewBox="0 0 27 27" fill="none" xmlns="http://www.w3.org/2000/svg">
<path d="M13.078 1.52972e-07C11.3608 -0.000262509 9.66027 0.337732 8.07365 0.994682C6.48703 1.65163 5.04535 2.61467 3.83093 3.82881C2.61651 5.04295 1.65314 6.48441 0.99583 8.07088C0.338515 9.65735 0.000131461 11.3578 1.5299e-07 13.075C-0.000262562 14.7925 0.337831 16.4932 0.994969 18.08C1.65211 19.6669 2.61541 21.1087 3.82987 22.3231C5.04433 23.5376 6.48614 24.5009 8.07296 25.158C9.65977 25.8152 11.3605 26.1533 13.078 26.153C14.7955 26.1533 16.4962 25.8152 18.083 25.158C19.6699 24.5009 21.1117 23.5376 22.3261 22.3231C23.5406 21.1087 24.5039 19.6669 25.161 18.08C25.8182 16.4932 26.1563 14.7925 26.156 13.075C26.1559 11.3578 25.8175 9.65735 25.1602 8.07088C24.5029 6.48441 23.5395 5.04295 22.3251 3.82881C21.1106 2.61467 19.669 1.65163 18.0824 0.994682C16.4957 0.337732 14.7952 -0.000262509 13.078 1.52972e-07V1.52972e-07ZM19.501 8.96L17.355 19.071C17.197 19.788 16.77 19.962 16.174 19.625L12.9 17.215L11.327 18.733C11.2494 18.8339 11.1496 18.9154 11.0353 18.9713C10.9209 19.0271 10.7952 19.0558 10.668 19.055L10.9 15.728L16.959 10.254C17.223 10.022 16.901 9.89 16.553 10.122L9.065 14.836L5.838 13.829C5.138 13.608 5.121 13.129 5.986 12.79L18.595 7.928C19.18 7.717 19.691 8.07 19.5 8.956L19.501 8.96Z" fill="black"/>
</svg>
