<svg width="28" height="23" viewBox="0 0 28 23" fill="none" xmlns="http://www.w3.org/2000/svg">
<g clip-path="url(#clip0_1_16)">
<path d="M25.122 5.67099C26.2416 4.85002 27.2146 3.84591 28 2.70099C26.9504 3.15969 25.8381 3.459 24.7 3.58899C25.8979 2.87727 26.795 1.75299 27.223 0.426994C26.0984 1.09641 24.8661 1.56538 23.581 1.81299C23.0439 1.23936 22.3944 0.782443 21.673 0.470703C20.9517 0.158964 20.1738 -0.000925645 19.388 0.000993639C18.6342 0.000599306 17.8878 0.148774 17.1913 0.437046C16.4948 0.725318 15.862 1.14803 15.329 1.68103C14.796 2.21402 14.3733 2.84684 14.0851 3.54331C13.7968 4.23977 13.6486 4.98623 13.649 5.73999C13.6513 6.18202 13.6989 6.62265 13.791 7.05499C11.5072 6.93951 9.27321 6.34513 7.23397 5.31044C5.19474 4.27575 3.39584 2.82386 1.954 1.04899C1.43875 1.92836 1.16871 2.9298 1.172 3.94899C1.17128 4.89473 1.40445 5.82597 1.85075 6.65978C2.29705 7.49359 2.94264 8.20409 3.73 8.72799C2.82005 8.69309 1.93123 8.44364 1.136 7.99999V8.07099C1.13435 9.39658 1.59163 10.6819 2.43016 11.7085C3.2687 12.7352 4.43678 13.4399 5.736 13.703C5.24307 13.8328 4.73574 13.9 4.226 13.903C3.86294 13.9006 3.50059 13.8708 3.142 13.814C3.51201 14.9523 4.22812 15.9468 5.19041 16.6587C6.15271 17.3705 7.3132 17.7643 8.51 17.785C6.4783 19.3796 3.96872 20.2433 1.386 20.237C0.922992 20.24 0.460201 20.216 0 20.165C2.62778 21.8549 5.68776 22.7498 8.812 22.742C19.366 22.742 25.14 14 25.14 6.41399C25.14 6.16499 25.14 5.91699 25.122 5.67099V5.67099Z" fill="black"/>
</g>
<defs>
<clipPath id="clip0_1_16">
<rect width="28" height="22.741" fill="white"/>
</clipPath>
</defs>
</svg>
