<svg width="149" height="40" viewBox="0 0 149 40" fill="none" xmlns="http://www.w3.org/2000/svg">
<rect x="0.0591317" y="0.0591317" width="39.8817" height="39.8817" rx="10.5846" fill="url(#paint0_linear_652_2095)" stroke="url(#paint1_linear_652_2095)" stroke-width="0.118263"/>
<path d="M14.7527 27.6388V24.1332H18.8508V16.875L14.7527 18.85V14.505L25.2943 9.4441V27.6388H14.7527Z" fill="white"/>
<path d="M60.0015 30.2241C58.2588 30.2241 56.7817 29.8257 55.5701 29.0291C54.3585 28.2158 53.4457 27.137 52.8316 25.7927C52.2341 24.4317 51.9354 22.9297 51.9354 21.2866C51.9354 19.6435 52.2424 18.1332 52.8565 16.7556C53.4706 15.3781 54.3834 14.2827 55.595 13.4695C56.8066 12.6396 58.2754 12.2247 60.0015 12.2247C61.6944 12.2247 63.1383 12.6313 64.3333 13.4446C65.5449 14.2578 66.4494 15.3615 67.0469 16.7556C67.661 18.1332 67.968 19.6518 67.968 21.3115C67.968 22.9712 67.661 24.4815 67.0469 25.8425C66.4494 27.1868 65.5449 28.2573 64.3333 29.054C63.1383 29.834 61.6944 30.2241 60.0015 30.2241ZM59.9766 26.7636C61.2048 26.7636 62.1508 26.2408 62.8147 25.1952C63.4951 24.1496 63.8354 22.8384 63.8354 21.2617C63.8354 19.7016 63.5034 18.3821 62.8396 17.3033C62.1757 16.2245 61.2214 15.6851 59.9766 15.6851C59.1301 15.6851 58.4082 15.9424 57.8107 16.4569C57.2298 16.9714 56.79 17.6519 56.4912 18.4983C56.2091 19.3448 56.068 20.2659 56.068 21.2617C56.068 22.8052 56.3999 24.1081 57.0638 25.1703C57.7443 26.2325 58.7152 26.7636 59.9766 26.7636ZM70.2753 16.8303H74.159V18.7473H74.3581C74.6403 18.1332 75.0967 17.6187 75.7274 17.2038C76.3747 16.7722 77.1547 16.5565 78.0676 16.5565C79.7936 16.5565 80.9886 17.1042 81.6525 18.1996C82.3164 19.2784 82.6483 20.49 82.6483 21.8343V30H78.7646V22.5065C78.7646 21.6434 78.5738 20.963 78.192 20.4651C77.8103 19.9672 77.246 19.7182 76.4992 19.7182C75.7025 19.7182 75.1133 19.9838 74.7316 20.5149C74.3498 21.0294 74.159 21.6932 74.159 22.5065V30H70.2753V16.8303ZM91.1285 30.2241C89.7344 30.2241 88.556 29.9087 87.5934 29.278C86.6473 28.6308 85.942 27.7926 85.4772 26.7636C85.0291 25.718 84.8051 24.5977 84.8051 23.4027C84.8051 22.2077 85.0291 21.0957 85.4772 20.0667C85.942 19.0211 86.6473 18.1747 87.5934 17.5274C88.556 16.8801 89.751 16.5565 91.1783 16.5565C93.0372 16.5565 94.5143 17.1457 95.6097 18.3241C96.7051 19.4858 97.2528 21.1787 97.2528 23.4027V24.4732H88.5394V24.6724C88.5394 25.3529 88.7717 25.942 89.2365 26.44C89.7178 26.9213 90.3236 27.1619 91.0538 27.1619C91.6181 27.1619 92.0994 27.0374 92.4978 26.7885C92.8961 26.5229 93.1782 26.1744 93.3442 25.7429H97.1532C96.8213 27.054 96.1325 28.1328 95.0869 28.9793C94.0579 29.8091 92.7384 30.2241 91.1285 30.2241ZM93.5434 21.9837C93.5268 21.0874 93.2944 20.4236 92.8463 19.992C92.4148 19.5605 91.8339 19.3448 91.1036 19.3448C90.3567 19.3448 89.7593 19.5771 89.3111 20.0418C88.8796 20.5066 88.6556 21.1538 88.639 21.9837H93.5434ZM105.212 12.5483H112.083C113.626 12.5483 114.987 12.8969 116.165 13.5939C117.344 14.2744 118.257 15.2702 118.904 16.5814C119.568 17.8759 119.9 19.4278 119.9 21.2368C119.9 23.0791 119.568 24.6558 118.904 25.9669C118.24 27.2781 117.311 28.2739 116.116 28.9544C114.937 29.6349 113.576 29.9751 112.033 29.9751H105.212V12.5483ZM111.311 26.4897C112.672 26.4897 113.751 26.0997 114.547 25.3197C115.344 24.5396 115.742 23.1787 115.742 21.2368C115.742 19.295 115.344 17.934 114.547 17.154C113.767 16.3739 112.688 15.9839 111.311 15.9839H108.971V26.4897H111.311ZM128.01 30.2241C126.616 30.2241 125.437 29.9087 124.475 29.278C123.529 28.6308 122.823 27.7926 122.358 26.7636C121.91 25.718 121.686 24.5977 121.686 23.4027C121.686 22.2077 121.91 21.0957 122.358 20.0667C122.823 19.0211 123.529 18.1747 124.475 17.5274C125.437 16.8801 126.632 16.5565 128.059 16.5565C129.918 16.5565 131.395 17.1457 132.491 18.3241C133.586 19.4858 134.134 21.1787 134.134 23.4027V24.4732H125.421V24.6724C125.421 25.3529 125.653 25.942 126.118 26.44C126.599 26.9213 127.205 27.1619 127.935 27.1619C128.499 27.1619 128.981 27.0374 129.379 26.7885C129.777 26.5229 130.059 26.1744 130.225 25.7429H134.034C133.702 27.054 133.014 28.1328 131.968 28.9793C130.939 29.8091 129.62 30.2241 128.01 30.2241ZM130.425 21.9837C130.408 21.0874 130.176 20.4236 129.727 19.992C129.296 19.5605 128.715 19.3448 127.985 19.3448C127.238 19.3448 126.64 19.5771 126.192 20.0418C125.761 20.5066 125.537 21.1538 125.52 21.9837H130.425ZM138.983 23.4276L135.075 16.8303H139.307L141.498 21.0874H141.597L143.838 16.8303H148.045L144.037 23.4276L148.02 30H143.813L141.597 25.7429H141.498L139.307 30H135.075L138.983 23.4276Z" fill="url(#paint2_linear_652_2095)"/>
<path d="M55.5701 29.0291L55.471 29.1767L55.4724 29.1777L55.5701 29.0291ZM52.8316 25.7927L52.6688 25.8642L52.6699 25.8666L52.8316 25.7927ZM52.8565 16.7556L53.0189 16.8281L52.8565 16.7556ZM55.595 13.4695L55.6941 13.6171L55.6955 13.6162L55.595 13.4695ZM64.3333 13.4446L64.2332 13.5916L64.2342 13.5922L64.3333 13.4446ZM67.0469 16.7556L66.8834 16.8257L66.8845 16.8281L67.0469 16.7556ZM67.0469 25.8425L66.8848 25.7693L66.8844 25.7702L67.0469 25.8425ZM64.3333 29.054L64.4305 29.2029L64.431 29.2026L64.3333 29.054ZM62.8147 25.1952L62.6656 25.0982L62.6645 25.0999L62.8147 25.1952ZM62.8396 17.3033L62.6881 17.3965L62.8396 17.3033ZM57.8107 16.4569L57.6946 16.3221L57.6928 16.3238L57.8107 16.4569ZM56.4912 18.4983L56.3235 18.4391L56.3225 18.4421L56.4912 18.4983ZM57.0638 25.1703L56.913 25.2645L56.9141 25.2662L57.0638 25.1703ZM60.0015 30.0462C58.2864 30.0462 56.8449 29.6545 55.6678 28.8805L55.4724 29.1777C56.7184 29.997 58.2312 30.4019 60.0015 30.4019V30.0462ZM55.6692 28.8814C54.4853 28.0868 53.594 27.0336 52.9933 25.7188L52.6699 25.8666C53.2974 27.2404 54.2317 28.3449 55.471 29.1767L55.6692 28.8814ZM52.9944 25.7212C52.4078 24.3851 52.1132 22.9077 52.1132 21.2866H51.7575C51.7575 22.9517 52.0604 24.4784 52.6688 25.8642L52.9944 25.7212ZM52.1132 21.2866C52.1132 19.6662 52.4159 18.1808 53.0189 16.8281L52.6941 16.6832C52.069 18.0855 51.7575 19.6208 51.7575 21.2866H52.1132ZM53.0189 16.8281C53.6199 15.48 54.5112 14.4111 55.6941 13.6171L55.4959 13.3218C54.2556 14.1543 53.3213 15.2762 52.6941 16.6832L53.0189 16.8281ZM55.6955 13.6162C56.8726 12.8099 58.3048 12.4025 60.0015 12.4025V12.0469C58.246 12.0469 56.7406 12.4693 55.4945 13.3227L55.6955 13.6162ZM60.0015 12.4025C61.6649 12.4025 63.0725 12.8017 64.2332 13.5916L64.4333 13.2975C63.2041 12.461 61.7238 12.0469 60.0015 12.0469V12.4025ZM64.2342 13.5922C65.4161 14.3856 66.2989 15.4618 66.8834 16.8257L67.2103 16.6856C66.5999 15.2612 65.6736 14.1301 64.4324 13.2969L64.2342 13.5922ZM66.8845 16.8281C67.4874 18.1806 67.7902 19.6742 67.7902 21.3115H68.1458C68.1458 19.6294 67.8345 18.0858 67.2093 16.6832L66.8845 16.8281ZM67.7902 21.3115C67.7902 22.9488 67.4874 24.4338 66.8848 25.7693L67.209 25.9156C67.8345 24.5292 68.1458 22.9936 68.1458 21.3115H67.7902ZM66.8844 25.7702C66.3005 27.0839 65.4182 28.1277 64.2356 28.9054L64.431 29.2026C65.6715 28.3869 66.5983 27.2897 67.2094 25.9147L66.8844 25.7702ZM64.2361 28.9051C63.075 29.663 61.6664 30.0462 60.0015 30.0462V30.4019C61.7223 30.4019 63.2016 30.0051 64.4305 29.2029L64.2361 28.9051ZM59.9766 26.9414C61.2662 26.9414 62.2686 26.387 62.9648 25.2905L62.6645 25.0999C62.0329 26.0946 61.1433 26.5858 59.9766 26.5858V26.9414ZM62.9637 25.2922C63.6673 24.211 64.0132 22.8638 64.0132 21.2617H63.6575C63.6575 22.813 63.3229 24.0882 62.6656 25.0982L62.9637 25.2922ZM64.0132 21.2617C64.0132 19.6763 63.6757 18.3228 62.991 17.2101L62.6881 17.3965C63.3311 18.4415 63.6575 19.7269 63.6575 21.2617H64.0132ZM62.991 17.2101C62.2955 16.0799 61.2844 15.5073 59.9766 15.5073V15.863C61.1583 15.863 62.0559 16.3692 62.6881 17.3965L62.991 17.2101ZM59.9766 15.5073C59.0909 15.5073 58.3269 15.7777 57.6946 16.3222L57.9267 16.5917C58.4895 16.1071 59.1693 15.863 59.9766 15.863V15.5073ZM57.6928 16.3238C57.086 16.8613 56.6307 17.5687 56.3235 18.4391L56.6589 18.5575C56.9492 17.735 57.3736 17.0816 57.9286 16.59L57.6928 16.3238ZM56.3225 18.4421C56.0337 19.3086 55.8902 20.249 55.8902 21.2617H56.2458C56.2458 20.2828 56.3845 19.3809 56.6599 18.5546L56.3225 18.4421ZM55.8902 21.2617C55.8902 22.8308 56.2278 24.1682 56.913 25.2645L57.2146 25.076C56.5721 24.048 56.2458 22.7796 56.2458 21.2617H55.8902ZM56.9141 25.2662C57.6272 26.3794 58.6546 26.9414 59.9766 26.9414V26.5858C58.7758 26.5858 57.8613 26.0855 57.2136 25.0744L56.9141 25.2662ZM70.2753 16.8303V16.6525H70.0975V16.8303H70.2753ZM74.159 16.8303H74.3368V16.6525H74.159V16.8303ZM74.159 18.7473H73.9812V18.9251H74.159V18.7473ZM74.3581 18.7473V18.9251H74.4721L74.5197 18.8215L74.3581 18.7473ZM75.7274 17.2038L75.8251 17.3523L75.826 17.3517L75.7274 17.2038ZM81.6525 18.1996L81.5004 18.2917L81.5011 18.2928L81.6525 18.1996ZM82.6483 30V30.1778H82.8261V30H82.6483ZM78.7646 30H78.5868V30.1778H78.7646V30ZM74.7316 20.5149L74.8744 20.6208L74.876 20.6186L74.7316 20.5149ZM74.159 30V30.1778H74.3368V30H74.159ZM70.2753 30H70.0975V30.1778H70.2753V30ZM70.2753 17.0082H74.159V16.6525H70.2753V17.0082ZM73.9812 16.8303V18.7473H74.3368V16.8303H73.9812ZM74.159 18.9251H74.3581V18.5695H74.159V18.9251ZM74.5197 18.8215C74.7864 18.2411 75.2189 17.7511 75.8251 17.3523L75.6297 17.0552C74.9745 17.4862 74.4942 18.0252 74.1966 18.673L74.5197 18.8215ZM75.826 17.3517C76.4393 16.9429 77.1836 16.7343 78.0676 16.7343V16.3787C77.1258 16.3787 76.31 16.6016 75.6288 17.0558L75.826 17.3517ZM78.0676 16.7343C79.7557 16.7343 80.8796 17.2674 81.5004 18.2917L81.8046 18.1074C81.0976 16.9409 79.8315 16.3787 78.0676 16.3787V16.7343ZM81.5011 18.2928C82.1466 19.3418 82.4705 20.5208 82.4705 21.8343H82.8261C82.8261 20.4592 82.4861 19.215 81.8039 18.1064L81.5011 18.2928ZM82.4705 21.8343V30H82.8261V21.8343H82.4705ZM82.6483 29.8222H78.7646V30.1778H82.6483V29.8222ZM78.9425 30V22.5065H78.5868V30H78.9425ZM78.9425 22.5065C78.9425 21.6188 78.7462 20.8956 78.3332 20.3569L78.0509 20.5733C78.4013 21.0303 78.5868 21.6681 78.5868 22.5065H78.9425ZM78.3332 20.3569C77.9112 19.8065 77.2895 19.5404 76.4992 19.5404V19.896C77.2025 19.896 77.7094 20.1278 78.0509 20.5733L78.3332 20.3569ZM76.4992 19.5404C75.6593 19.5404 75.0098 19.8231 74.5872 20.4111L74.876 20.6186C75.2169 20.1444 75.7457 19.896 76.4992 19.896V19.5404ZM74.5888 20.4089C74.1788 20.9614 73.9812 21.6654 73.9812 22.5065H74.3368C74.3368 21.721 74.5209 21.0973 74.8744 20.6208L74.5888 20.4089ZM73.9812 22.5065V30H74.3368V22.5065H73.9812ZM74.159 29.8222H70.2753V30.1778H74.159V29.8222ZM70.4531 30V16.8303H70.0975V30H70.4531ZM87.5934 29.278L87.4929 29.4248L87.4959 29.4268L87.5934 29.278ZM85.4772 26.7636L85.3138 26.8337L85.3152 26.8368L85.4772 26.7636ZM85.4772 20.0667L85.3147 19.9945L85.3142 19.9957L85.4772 20.0667ZM87.5934 17.5274L87.4941 17.3798L87.4929 17.3806L87.5934 17.5274ZM95.6097 18.3241L95.4794 18.4451L95.4803 18.446L95.6097 18.3241ZM97.2528 24.4732V24.651H97.4306V24.4732H97.2528ZM88.5394 24.4732V24.2954H88.3616V24.4732H88.5394ZM89.2365 26.44L89.1064 26.5614L89.1107 26.5657L89.2365 26.44ZM92.4977 26.7885L92.592 26.9394L92.5964 26.9365L92.4977 26.7885ZM93.3442 25.7429V25.5651H93.2221L93.1782 25.6791L93.3442 25.7429ZM97.1532 25.7429L97.3256 25.7865L97.3816 25.5651H97.1532V25.7429ZM95.0869 28.9793L95.1985 29.1177L95.1988 29.1175L95.0869 28.9793ZM93.5434 21.9837V22.1615H93.7245L93.7211 21.9804L93.5434 21.9837ZM92.8463 19.9921L92.7205 20.1178L92.7229 20.1201L92.8463 19.9921ZM89.3111 20.0418L89.1831 19.9184L89.1808 19.9208L89.3111 20.0418ZM88.639 21.9837L88.4612 21.9801L88.4575 22.1615H88.639V21.9837ZM91.1285 30.0462C89.7616 30.0462 88.6189 29.7373 87.6908 29.1293L87.4959 29.4268C88.4931 30.0801 89.7071 30.4019 91.1285 30.4019V30.0462ZM87.6938 29.1313C86.7742 28.5021 86.0904 27.6892 85.6393 26.6904L85.3152 26.8368C85.7935 27.896 86.5204 28.7594 87.4929 29.4248L87.6938 29.1313ZM85.6407 26.6936C85.2025 25.6712 84.9829 24.5749 84.9829 23.4027H84.6272C84.6272 24.6205 84.8557 25.7648 85.3138 26.8336L85.6407 26.6936ZM84.9829 23.4027C84.9829 22.2306 85.2025 21.1429 85.6403 20.1377L85.3142 19.9957C84.8557 21.0486 84.6272 22.1849 84.6272 23.4027H84.9829ZM85.6397 20.139C86.091 19.1235 86.7749 18.3029 87.6938 17.6742L87.4929 17.3806C86.5198 18.0465 85.7929 18.9187 85.3148 19.9945L85.6397 20.139ZM87.6926 17.675C88.6197 17.0515 89.7781 16.7343 91.1783 16.7343V16.3787C89.7238 16.3787 88.4922 16.7087 87.4941 17.3798L87.6926 17.675ZM91.1783 16.7343C92.9962 16.7343 94.423 17.3087 95.4794 18.4451L95.7399 18.203C94.6055 16.9827 93.0782 16.3787 91.1783 16.3787V16.7343ZM95.4803 18.446C96.5341 19.5637 97.0749 21.2061 97.0749 23.4027H97.4306C97.4306 21.1513 96.876 19.4079 95.7391 18.2021L95.4803 18.446ZM97.0749 23.4027V24.4732H97.4306V23.4027H97.0749ZM97.2528 24.2954H88.5394V24.651H97.2528V24.2954ZM88.3616 24.4732V24.6724H88.7172V24.4732H88.3616ZM88.3616 24.6724C88.3616 25.3979 88.611 26.0305 89.1065 26.5613L89.3665 26.3186C88.9324 25.8536 88.7172 25.3078 88.7172 24.6724H88.3616ZM89.1107 26.5657C89.628 27.083 90.2802 27.3397 91.0538 27.3397V26.9841C90.3669 26.9841 89.8076 26.7596 89.3622 26.3142L89.1107 26.5657ZM91.0538 27.3397C91.6447 27.3397 92.1602 27.2092 92.592 26.9393L92.4035 26.6377C92.0387 26.8657 91.5915 26.9841 91.0538 26.9841V27.3397ZM92.5964 26.9365C93.0242 26.6513 93.3305 26.2738 93.5102 25.8067L93.1782 25.6791C93.0259 26.075 92.768 26.3946 92.3991 26.6405L92.5964 26.9365ZM93.3442 25.9207H97.1532V25.5651H93.3442V25.9207ZM96.9808 25.6992C96.6582 26.9734 95.9906 28.0189 94.975 28.8411L95.1988 29.1175C96.2744 28.2468 96.9843 27.1347 97.3256 25.7865L96.9808 25.6992ZM94.9752 28.8409C93.9843 29.64 92.7069 30.0462 91.1285 30.0462V30.4019C92.7699 30.4019 94.1314 29.9783 95.1985 29.1177L94.9752 28.8409ZM93.7211 21.9804C93.7041 21.0579 93.4643 20.3403 92.9696 19.864L92.7229 20.1201C93.1245 20.5068 93.3495 21.117 93.3656 21.987L93.7211 21.9804ZM92.972 19.8663C92.5007 19.395 91.8711 19.1669 91.1036 19.1669V19.5226C91.7966 19.5226 92.3288 19.726 92.7205 20.1178L92.972 19.8663ZM91.1036 19.1669C90.3167 19.1669 89.6701 19.4134 89.1831 19.9184L89.4391 20.1653C89.8484 19.7408 90.3968 19.5226 91.1036 19.5226V19.1669ZM89.1808 19.9208C88.7114 20.4264 88.4784 21.1204 88.4612 21.9801L88.8168 21.9872C88.8328 21.1873 89.0478 20.5867 89.4414 20.1628L89.1808 19.9208ZM88.639 22.1615H93.5434V21.8059H88.639V22.1615ZM105.212 12.5483V12.3705H105.034V12.5483H105.212ZM116.165 13.5939L116.075 13.747L116.077 13.7479L116.165 13.5939ZM118.904 16.5814L118.745 16.6601L118.746 16.6625L118.904 16.5814ZM118.904 25.9669L119.063 26.0473L118.904 25.9669ZM116.116 28.9544L116.028 28.7999L116.027 28.8004L116.116 28.9544ZM105.212 29.9751H105.034V30.1529H105.212V29.9751ZM114.547 17.154L114.422 17.2797L114.423 17.281L114.547 17.154ZM108.971 15.9839V15.8061H108.793V15.9839H108.971ZM108.971 26.4897H108.793V26.6676H108.971V26.4897ZM105.212 12.7261H112.083V12.3705H105.212V12.7261ZM112.083 12.7261C113.598 12.7261 114.927 13.0681 116.075 13.747L116.256 13.4409C115.047 12.7256 113.654 12.3705 112.083 12.3705V12.7261ZM116.077 13.7479C117.222 14.4095 118.112 15.378 118.745 16.6601L119.063 16.5027C118.402 15.1625 117.466 14.1393 116.254 13.4399L116.077 13.7479ZM118.746 16.6625C119.394 17.9266 119.722 19.4492 119.722 21.2368H120.078C120.078 19.4063 119.742 17.8253 119.062 16.5002L118.746 16.6625ZM119.722 21.2368C119.722 23.0581 119.394 24.6059 118.745 25.8866L119.063 26.0473C119.742 24.7057 120.078 23.1001 120.078 21.2368H119.722ZM118.745 25.8866C118.096 27.1689 117.19 28.1379 116.028 28.7999L116.204 29.1089C117.431 28.41 118.384 27.3873 119.063 26.0473L118.745 25.8866ZM116.027 28.8004C114.879 29.4633 113.549 29.7973 112.033 29.7973V30.1529C113.603 30.1529 114.996 29.8065 116.205 29.1084L116.027 28.8004ZM112.033 29.7973H105.212V30.1529H112.033V29.7973ZM105.389 29.9751V12.5483H105.034V29.9751H105.389ZM111.311 26.6676C112.707 26.6676 113.835 26.2662 114.672 25.4467L114.423 25.1926C113.667 25.9332 112.636 26.3119 111.311 26.3119V26.6676ZM114.672 25.4467C115.52 24.6156 115.92 23.1935 115.92 21.2368H115.564C115.564 23.1638 115.167 24.4636 114.423 25.1926L114.672 25.4467ZM115.92 21.2368C115.92 19.2801 115.52 17.858 114.672 17.0269L114.423 17.281C115.167 18.01 115.564 19.3098 115.564 21.2368H115.92ZM114.673 17.0282C113.852 16.207 112.723 15.8061 111.311 15.8061V16.1617C112.654 16.1617 113.683 16.5409 114.422 17.2797L114.673 17.0282ZM111.311 15.8061H108.971V16.1617H111.311V15.8061ZM108.793 15.9839V26.4897H109.149V15.9839H108.793ZM108.971 26.6676H111.311V26.3119H108.971V26.6676ZM124.475 29.278L124.374 29.4248L124.377 29.4268L124.475 29.278ZM122.358 26.7636L122.195 26.8337L122.196 26.8368L122.358 26.7636ZM122.358 20.0667L122.196 19.9945L122.195 19.9957L122.358 20.0667ZM124.475 17.5274L124.375 17.3798L124.374 17.3806L124.475 17.5274ZM132.491 18.3241L132.361 18.4451L132.361 18.446L132.491 18.3241ZM134.134 24.4732V24.651H134.312V24.4732H134.134ZM125.421 24.4732V24.2954H125.243V24.4732H125.421ZM126.118 26.44L125.988 26.5614L125.992 26.5657L126.118 26.44ZM129.379 26.7885L129.473 26.9394L129.478 26.9365L129.379 26.7885ZM130.225 25.7429V25.5651H130.103L130.059 25.6791L130.225 25.7429ZM134.034 25.7429L134.207 25.7865L134.263 25.5651H134.034V25.7429ZM131.968 28.9793L132.08 29.1177L132.08 29.1175L131.968 28.9793ZM130.425 21.9837V22.1615H130.606L130.602 21.9804L130.425 21.9837ZM129.727 19.9921L129.602 20.1178L129.604 20.1201L129.727 19.9921ZM126.192 20.0418L126.064 19.9184L126.062 19.9208L126.192 20.0418ZM125.52 21.9837L125.342 21.9801L125.339 22.1615H125.52V21.9837ZM128.01 30.0462C126.643 30.0462 125.5 29.7373 124.572 29.1293L124.377 29.4268C125.374 30.0801 126.588 30.4019 128.01 30.4019V30.0462ZM124.575 29.1313C123.655 28.5021 122.972 27.6892 122.52 26.6904L122.196 26.8368C122.675 27.896 123.402 28.7594 124.374 29.4248L124.575 29.1313ZM122.522 26.6936C122.084 25.6712 121.864 24.5749 121.864 23.4027H121.508C121.508 24.6205 121.737 25.7648 122.195 26.8336L122.522 26.6936ZM121.864 23.4027C121.864 22.2306 122.084 21.1429 122.521 20.1377L122.195 19.9957C121.737 21.0486 121.508 22.1849 121.508 23.4027H121.864ZM122.521 20.139C122.972 19.1235 123.656 18.3029 124.575 17.6742L124.374 17.3806C123.401 18.0465 122.674 18.9187 122.196 19.9945L122.521 20.139ZM124.574 17.675C125.501 17.0515 126.659 16.7343 128.059 16.7343V16.3787C126.605 16.3787 125.373 16.7087 124.375 17.3798L124.574 17.675ZM128.059 16.7343C129.877 16.7343 131.304 17.3087 132.361 18.4451L132.621 18.203C131.487 16.9827 129.959 16.3787 128.059 16.3787V16.7343ZM132.361 18.446C133.415 19.5637 133.956 21.2061 133.956 23.4027H134.312C134.312 21.1513 133.757 19.4079 132.62 18.2021L132.361 18.446ZM133.956 23.4027V24.4732H134.312V23.4027H133.956ZM134.134 24.2954H125.421V24.651H134.134V24.2954ZM125.243 24.4732V24.6724H125.598V24.4732H125.243ZM125.243 24.6724C125.243 25.3979 125.492 26.0305 125.988 26.5613L126.248 26.3186C125.814 25.8536 125.598 25.3078 125.598 24.6724H125.243ZM125.992 26.5657C126.509 27.083 127.161 27.3397 127.935 27.3397V26.9841C127.248 26.9841 126.689 26.7596 126.243 26.3142L125.992 26.5657ZM127.935 27.3397C128.526 27.3397 129.041 27.2092 129.473 26.9393L129.285 26.6377C128.92 26.8657 128.473 26.9841 127.935 26.9841V27.3397ZM129.478 26.9365C129.905 26.6513 130.212 26.2738 130.391 25.8067L130.059 25.6791C129.907 26.075 129.649 26.3946 129.28 26.6405L129.478 26.9365ZM130.225 25.9207H134.034V25.5651H130.225V25.9207ZM133.862 25.6992C133.539 26.9734 132.872 28.0189 131.856 28.8411L132.08 29.1175C133.156 28.2468 133.865 27.1347 134.207 25.7865L133.862 25.6992ZM131.856 28.8409C130.865 29.64 129.588 30.0462 128.01 30.0462V30.4019C129.651 30.4019 131.013 29.9783 132.08 29.1177L131.856 28.8409ZM130.602 21.9804C130.585 21.0579 130.345 20.3403 129.851 19.864L129.604 20.1201C130.006 20.5068 130.231 21.117 130.247 21.987L130.602 21.9804ZM129.853 19.8663C129.382 19.395 128.752 19.1669 127.985 19.1669V19.5226C128.678 19.5226 129.21 19.726 129.602 20.1178L129.853 19.8663ZM127.985 19.1669C127.198 19.1669 126.551 19.4134 126.064 19.9184L126.32 20.1653C126.73 19.7408 127.278 19.5226 127.985 19.5226V19.1669ZM126.062 19.9208C125.593 20.4264 125.36 21.1204 125.342 21.9801L125.698 21.9872C125.714 21.1873 125.929 20.5867 126.323 20.1628L126.062 19.9208ZM125.52 22.1615H130.425V21.8059H125.52V22.1615ZM138.983 23.4276L139.136 23.5185L139.19 23.4278L139.136 23.337L138.983 23.4276ZM135.075 16.8303V16.6525H134.762L134.922 16.921L135.075 16.8303ZM139.307 16.8303L139.465 16.749L139.415 16.6525H139.307V16.8303ZM141.498 21.0874L141.339 21.1688L141.389 21.2653H141.498V21.0874ZM141.597 21.0874V21.2653H141.704L141.754 21.1703L141.597 21.0874ZM143.838 16.8303V16.6525H143.73L143.68 16.7475L143.838 16.8303ZM148.045 16.8303L148.197 16.9227L148.361 16.6525H148.045V16.8303ZM144.037 23.4276L143.885 23.3353L143.829 23.4275L143.885 23.5198L144.037 23.4276ZM148.02 30V30.1778H148.336L148.172 29.9078L148.02 30ZM143.813 30L143.655 30.0821L143.705 30.1778H143.813V30ZM141.597 25.7429L141.755 25.6608L141.705 25.5651H141.597V25.7429ZM141.498 25.7429V25.5651H141.389L141.339 25.6615L141.498 25.7429ZM139.307 30V30.1778H139.415L139.465 30.0814L139.307 30ZM135.075 30L134.922 29.9091L134.762 30.1778H135.075V30ZM139.136 23.337L135.228 16.7397L134.922 16.921L138.83 23.5183L139.136 23.337ZM135.075 17.0082H139.307V16.6525H135.075V17.0082ZM139.149 16.9117L141.339 21.1688L141.656 21.0061L139.465 16.749L139.149 16.9117ZM141.498 21.2653H141.597V20.9096H141.498V21.2653ZM141.754 21.1703L143.995 16.9132L143.68 16.7475L141.44 21.0046L141.754 21.1703ZM143.838 17.0082H148.045V16.6525H143.838V17.0082ZM147.893 16.738L143.885 23.3353L144.189 23.5199L148.197 16.9227L147.893 16.738ZM143.885 23.5198L147.868 30.0922L148.172 29.9078L144.189 23.3354L143.885 23.5198ZM148.02 29.8222H143.813V30.1778H148.02V29.8222ZM143.971 29.9179L141.755 25.6608L141.439 25.825L143.655 30.0821L143.971 29.9179ZM141.597 25.5651H141.498V25.9207H141.597V25.5651ZM141.339 25.6615L139.149 29.9186L139.465 30.0814L141.656 25.8243L141.339 25.6615ZM139.307 29.8222H135.075V30.1778H139.307V29.8222ZM135.227 30.0909L139.136 23.5185L138.83 23.3367L134.922 29.9091L135.227 30.0909Z" fill="url(#paint3_linear_652_2095)"/>
<defs>
<linearGradient id="paint0_linear_652_2095" x1="35.7895" y1="40" x2="0" y2="40" gradientUnits="userSpaceOnUse">
<stop stop-color="#88BB22"/>
<stop offset="1" stop-color="#5AA62B"/>
</linearGradient>
<linearGradient id="paint1_linear_652_2095" x1="35.7895" y1="40" x2="0" y2="40" gradientUnits="userSpaceOnUse">
<stop stop-color="#88BB22"/>
<stop offset="1" stop-color="#5AA62B"/>
</linearGradient>
<linearGradient id="paint2_linear_652_2095" x1="138.667" y1="36.454" x2="51" y2="36.454" gradientUnits="userSpaceOnUse">
<stop stop-color="#88BB22"/>
<stop offset="1" stop-color="#5AA62B"/>
</linearGradient>
<linearGradient id="paint3_linear_652_2095" x1="138.667" y1="36.454" x2="51" y2="36.454" gradientUnits="userSpaceOnUse">
<stop stop-color="#88BB22"/>
<stop offset="1" stop-color="#5AA62B"/>
</linearGradient>
</defs>
</svg>
