<svg width="40" height="40" viewBox="0 0 40 40" fill="none" xmlns="http://www.w3.org/2000/svg">
<path d="M0 9.375C0 4.19734 4.19733 0 9.375 0H30.625C35.8027 0 40 4.19733 40 9.375V30.625C40 35.8027 35.8027 40 30.625 40H9.375C4.19734 40 0 35.8027 0 30.625V9.375Z" fill="#FFB800"/>
<path opacity="0.2" d="M29.3204 19.6998C29.3204 27.8593 25.0451 34.4738 19.7713 34.4738C14.4975 34.4738 10.2223 27.8593 10.2223 19.6998C10.2223 11.5404 14.4975 4.92583 19.7713 4.92583C25.0451 4.92583 29.3204 11.5404 29.3204 19.6998Z" fill="white"/>
<path opacity="0.25" d="M24.5007 11.5642C31.5401 15.6284 35.1286 22.5915 32.5159 27.1168C29.9033 31.6421 22.0787 32.0159 15.0394 27.9517C8.00005 23.8876 4.41153 16.9244 7.02421 12.3991C9.63689 7.87385 17.4614 7.50003 24.5007 11.5642Z" fill="white"/>
<path opacity="0.2" d="M24.501 28.1263C17.4617 32.1904 9.63715 31.8166 7.02447 27.2913C4.41179 22.766 8.00031 15.8029 15.0397 11.7387C22.079 7.67454 29.9035 8.04836 32.5162 12.5737C35.1289 17.0989 31.5404 24.0621 24.501 28.1263Z" fill="white"/>
<path d="M13.7948 22.2324L9.5573 22.0045V18.2824C12.7969 17.515 13.7333 16.3189 13.7355 12.9879C13.7355 12.5362 13.7164 12.0825 13.7355 11.6308C13.8096 10.4054 14.5935 9.58994 15.8224 9.57948C18.9624 9.55021 22.1017 9.55021 25.2402 9.57948C26.6322 9.59412 27.359 10.4494 27.359 12.0155C27.3717 17.3129 27.3717 22.6046 27.359 27.8907C27.359 28.0308 27.359 28.1709 27.359 28.309C27.2509 29.5489 26.4924 30.308 25.2402 30.3185C22.1327 30.3435 19.0295 30.3435 15.9305 30.3185C14.5681 30.3059 13.763 29.5029 13.7461 28.1521C13.7206 26.1698 13.7461 24.1791 13.7609 22.1968H18.0323V26.0925H23.1173V13.8201H18.0323C17.6954 16.6869 16.7843 17.6425 13.7948 18.2991V22.2324Z" fill="#020202"/>
</svg>
