<svg width="720" height="405" viewBox="0 0 720 405" fill="none" xmlns="http://www.w3.org/2000/svg">
<g clip-path="url(#clip0_1332_13612)">
<rect width="405" height="720" transform="matrix(0 -1 -1 0 720 405)" fill="#9B9B9B"/>
<g filter="url(#filter0_f_1332_13612)">
<circle cx="755.939" cy="30.0422" r="172.777" transform="rotate(-90 755.939 30.0422)" fill="#BBB8F9"/>
</g>
<g filter="url(#filter1_f_1332_13612)">
<circle cx="178.608" cy="28.8891" r="172.777" transform="rotate(-90 178.608 28.8891)" fill="#4797D8"/>
</g>
<g filter="url(#filter2_f_1332_13612)">
<circle cx="468.042" cy="365.986" r="172.777" transform="rotate(-90 468.042 365.986)" fill="#9876C6"/>
</g>
<g filter="url(#filter3_f_1332_13612)">
<circle cx="338.892" cy="233.761" r="172.777" transform="rotate(-90 338.892 233.761)" fill="#F9DBE5"/>
</g>
<g filter="url(#filter4_f_1332_13612)">
<mask id="mask0_1332_13612" style="mask-type:alpha" maskUnits="userSpaceOnUse" x="17" y="81" width="685" height="328">
<rect x="17.9287" y="81.3318" width="683.529" height="327.668" rx="48.8235" fill="#C4C4C4"/>
</mask>
<g mask="url(#mask0_1332_13612)">
<g filter="url(#filter5_f_1332_13612)">
<ellipse cx="360.34" cy="82.2172" rx="242.325" ry="222.283" fill="#EEDFF0"/>
</g>
<g filter="url(#filter6_f_1332_13612)">
<ellipse cx="359.927" cy="373.576" rx="193.087" ry="177.118" fill="#E0E0E0"/>
</g>
<g filter="url(#filter7_f_1332_13612)">
<ellipse cx="360.425" cy="44.1369" rx="149.643" ry="154.093" fill="#FFC4BC"/>
</g>
<g filter="url(#filter8_f_1332_13612)">
<ellipse cx="360.34" cy="328.411" rx="242.325" ry="222.283" fill="#9D98A0"/>
</g>
<g filter="url(#filter9_f_1332_13612)">
<ellipse cx="360.369" cy="29.082" rx="325.352" ry="298.444" fill="#5B5B5B"/>
</g>
</g>
</g>
<mask id="mask1_1332_13612" style="mask-type:alpha" maskUnits="userSpaceOnUse" x="-73" y="-6" width="865" height="415">
<rect x="-72.3945" y="-6" width="864.177" height="414.266" rx="48.8235" fill="white"/>
</mask>
<g mask="url(#mask1_1332_13612)">
<rect x="-72.3945" y="-6" width="864.177" height="414.266" rx="48.8235" fill="#505050"/>
<g filter="url(#filter10_f_1332_13612)">
<ellipse cx="745.398" cy="350.045" rx="258.765" ry="237.363" fill="#020202"/>
</g>
<g filter="url(#filter11_f_1332_13612)">
<ellipse cx="107.032" cy="306.379" rx="306.368" ry="281.029" fill="black"/>
</g>
</g>
<g filter="url(#filter12_f_1332_13612)">
<ellipse cx="67" cy="99.5" rx="199" ry="182.5" fill="black"/>
</g>
<path d="M741.963 576.813C642.004 517.844 486.783 359.743 665.569 199.091" stroke="white" stroke-width="0.62923"/>
<path d="M-28.4824 339.463C71.4764 398.432 226.698 556.533 47.9116 717.185" stroke="white" stroke-width="0.62923"/>
<path d="M732.451 573.883C634.854 511.083 485.88 347.082 670.761 193.483" stroke="white" stroke-width="0.62923"/>
<path d="M722.939 570.953C627.851 504.415 485.348 334.761 676.046 188.447" stroke="white" stroke-width="0.62923"/>
<path d="M713.428 568.023C620.991 497.848 485.173 322.796 681.401 183.986" stroke="white" stroke-width="0.62923"/>
<path d="M703.915 565.092C614.269 491.386 485.341 311.199 686.804 180.102" stroke="white" stroke-width="0.62923"/>
<path d="M694.405 562.162C607.684 485.035 485.841 299.985 692.235 176.798" stroke="white" stroke-width="0.62923"/>
<path d="M684.893 559.232C601.227 478.8 486.651 289.165 697.667 174.074" stroke="white" stroke-width="0.62923"/>
<path d="M675.381 556.302C594.897 472.686 487.76 278.75 703.08 171.929" stroke="white" stroke-width="0.62923"/>
<path d="M665.869 553.372C588.688 466.698 489.152 268.754 708.451 170.362" stroke="white" stroke-width="0.62923"/>
<path d="M656.357 550.441C582.595 460.84 490.809 259.185 713.759 169.37" stroke="white" stroke-width="0.62923"/>
<path d="M646.846 547.511C576.614 455.117 492.715 250.055 718.98 168.952" stroke="white" stroke-width="0.62923"/>
<path d="M637.334 544.581C570.737 449.533 494.853 241.372 724.093 169.104" stroke="white" stroke-width="0.62923"/>
<path d="M627.823 541.65C564.962 444.092 497.207 233.145 729.076 169.82" stroke="white" stroke-width="0.62923"/>
<path d="M618.311 538.72C559.279 438.798 499.755 225.382 733.905 171.096" stroke="white" stroke-width="0.62923"/>
<path d="M608.799 535.79C553.687 433.654 502.482 218.09 738.562 172.924" stroke="white" stroke-width="0.62923"/>
<path d="M599.287 532.86C548.177 428.664 505.369 211.277 743.023 175.298" stroke="white" stroke-width="0.62923"/>
<path d="M589.775 529.929C542.744 423.83 508.398 204.946 747.267 178.21" stroke="white" stroke-width="0.62923"/>
<path d="M580.265 526.999C537.382 419.155 511.55 199.105 751.276 181.651" stroke="white" stroke-width="0.62923"/>
<path d="M570.753 524.069C532.085 414.644 514.804 193.757 755.027 185.612" stroke="white" stroke-width="0.62923"/>
<path d="M561.24 521.139C526.844 410.296 518.141 188.906 758.499 190.081" stroke="white" stroke-width="0.62923"/>
<path d="M551.729 518.208C521.657 406.116 521.545 184.554 761.677 195.049" stroke="white" stroke-width="0.62923"/>
<path d="M542.217 515.278C516.513 402.104 524.993 180.704 764.537 200.503" stroke="white" stroke-width="0.62923"/>
<path d="M532.706 512.348C511.41 398.262 528.468 177.358 767.065 206.429" stroke="white" stroke-width="0.62923"/>
<path d="M523.194 509.418C506.338 394.592 531.949 174.515 769.239 212.817" stroke="white" stroke-width="0.62923"/>
<path d="M513.683 506.487C501.292 391.094 535.417 172.176 771.043 219.65" stroke="white" stroke-width="0.62923"/>
<path d="M504.171 503.557C496.264 387.77 538.852 170.34 772.46 226.915" stroke="white" stroke-width="0.62923"/>
<path d="M494.659 500.627C491.248 384.621 542.234 169.005 773.473 234.596" stroke="white" stroke-width="0.62923"/>
<path d="M485.147 497.697C486.237 381.645 545.546 168.169 774.067 242.676" stroke="white" stroke-width="0.62923"/>
<path d="M475.636 494.766C481.224 378.844 548.766 167.829 774.227 251.141" stroke="white" stroke-width="0.62923"/>
<path d="M466.125 491.836C476.204 376.218 551.877 167.98 773.938 259.972" stroke="white" stroke-width="0.62923"/>
<path d="M456.612 488.906C471.167 373.766 554.858 168.618 773.185 269.152" stroke="white" stroke-width="0.62923"/>
<path d="M447.101 485.976C466.109 371.486 557.692 169.739 771.956 278.662" stroke="white" stroke-width="0.62923"/>
<path d="M437.589 483.045C461.022 369.379 560.359 171.334 770.239 288.484" stroke="white" stroke-width="0.62923"/>
<path d="M428.077 480.115C455.9 367.443 562.842 173.399 768.021 298.599" stroke="white" stroke-width="0.62923"/>
<path d="M418.565 477.185C450.737 365.676 565.122 175.925 765.292 308.986" stroke="white" stroke-width="0.62923"/>
<path d="M409.055 474.255C445.525 364.077 567.182 178.904 762.042 319.627" stroke="white" stroke-width="0.62923"/>
<path d="M399.542 471.324C440.258 362.644 569.003 182.327 758.26 330.5" stroke="white" stroke-width="0.62923"/>
<path d="M390.03 468.394C434.929 361.374 570.57 186.185 753.939 341.585" stroke="white" stroke-width="0.62923"/>
<path d="M380.519 465.464C429.534 360.266 571.865 190.468 749.071 352.861" stroke="white" stroke-width="0.62923"/>
<path d="M371.008 462.534C424.065 359.315 572.873 195.164 743.649 364.306" stroke="white" stroke-width="0.62923"/>
<path d="M361.495 459.603C418.515 358.52 573.576 200.262 737.665 375.899" stroke="white" stroke-width="0.62923"/>
<path d="M351.984 456.673C412.881 357.877 573.962 205.75 731.117 387.618" stroke="white" stroke-width="0.62923"/>
<path d="M342.473 453.743C407.154 357.382 574.013 211.616 723.998 399.441" stroke="white" stroke-width="0.62923"/>
<path d="M332.961 450.812C401.33 357.032 573.716 217.846 716.304 411.345" stroke="white" stroke-width="0.62923"/>
<path d="M323.449 447.882C395.403 356.824 573.056 224.426 708.035 423.309" stroke="white" stroke-width="0.62923"/>
<path d="M313.937 444.952C389.367 356.752 572.02 231.343 699.186 435.309" stroke="white" stroke-width="0.62923"/>
<path d="M304.425 442.022C383.219 356.813 570.597 238.58 689.758 447.325" stroke="white" stroke-width="0.62923"/>
<path d="M294.913 439.091C376.952 357.002 568.774 246.124 679.751 459.332" stroke="white" stroke-width="0.62923"/>
<path d="M285.402 436.161C370.563 357.314 566.54 253.958 669.166 471.309" stroke="white" stroke-width="0.62923"/>
<path d="M275.891 433.231C364.044 357.745 563.882 262.066 658.003 483.233" stroke="white" stroke-width="0.62923"/>
<path d="M266.379 430.301C357.393 358.29 560.79 270.431 646.265 495.081" stroke="white" stroke-width="0.62923"/>
<path d="M256.867 427.371C350.605 358.943 557.256 279.037 633.956 506.832" stroke="white" stroke-width="0.62923"/>
<path d="M247.354 424.44C343.675 359.699 553.269 287.866 621.078 518.464" stroke="white" stroke-width="0.62923"/>
<path d="M237.843 421.51C336.602 360.552 548.823 296.9 607.64 529.954" stroke="white" stroke-width="0.62923"/>
<path d="M228.332 418.58C329.38 361.497 543.91 306.123 593.646 541.282" stroke="white" stroke-width="0.62923"/>
<path d="M218.82 415.649C322.006 362.528 538.522 315.513 579.102 552.424" stroke="white" stroke-width="0.62923"/>
<path d="M209.309 412.719C314.476 363.639 532.653 325.055 564.016 563.361" stroke="white" stroke-width="0.62923"/>
<path d="M199.797 409.789C306.789 364.824 526.297 334.728 548.396 574.072" stroke="white" stroke-width="0.62923"/>
<path d="M190.285 406.859C298.94 366.076 519.45 344.515 532.252 584.535" stroke="white" stroke-width="0.62923"/>
<path d="M180.773 403.928C290.928 367.389 512.108 354.395 515.594 594.731" stroke="white" stroke-width="0.62923"/>
<path d="M171.263 400.998C282.751 368.758 504.269 364.35 498.433 604.64" stroke="white" stroke-width="0.62923"/>
<path d="M161.751 398.068C274.406 370.175 495.928 374.359 480.778 614.243" stroke="white" stroke-width="0.62923"/>
<path d="M152.239 395.138C265.891 371.634 487.084 384.405 462.645 623.52" stroke="white" stroke-width="0.62923"/>
<path d="M142.727 392.208C257.204 373.128 477.736 394.466 444.043 632.454" stroke="white" stroke-width="0.62923"/>
<path d="M133.215 389.277C248.346 374.651 467.885 404.525 424.989 641.027" stroke="white" stroke-width="0.62923"/>
<path d="M123.702 386.347C239.314 376.196 457.529 414.56 405.495 649.221" stroke="white" stroke-width="0.62923"/>
<path d="M114.192 383.417C230.111 377.756 446.674 424.552 385.58 657.02" stroke="white" stroke-width="0.62923"/>
<path d="M104.68 380.486C220.73 379.325 435.316 434.483 365.254 664.407" stroke="white" stroke-width="0.62923"/>
<path d="M95.168 377.556C211.176 380.896 423.462 444.333 344.538 671.367" stroke="white" stroke-width="0.62923"/>
<path d="M85.6562 374.626C201.448 382.461 411.114 454.082 323.446 677.885" stroke="white" stroke-width="0.62923"/>
<path d="M76.1445 371.696C191.545 384.015 398.277 463.712 301.996 683.947" stroke="white" stroke-width="0.62923"/>
<path d="M66.6328 368.765C181.469 385.55 384.955 473.203 280.207 689.54" stroke="white" stroke-width="0.62923"/>
<path d="M57.1221 365.835C171.221 387.06 371.155 482.538 258.097 694.649" stroke="white" stroke-width="0.62923"/>
<path d="M47.6104 362.905C160.801 388.538 356.882 491.696 235.685 699.265" stroke="white" stroke-width="0.62923"/>
<path d="M38.0986 359.975C150.21 389.978 342.144 500.661 212.989 703.374" stroke="white" stroke-width="0.62923"/>
<path d="M28.5869 357.044C139.451 391.372 326.948 509.415 190.03 706.967" stroke="white" stroke-width="0.62923"/>
<path d="M19.0752 354.114C128.524 392.715 311.304 517.939 166.829 710.034" stroke="white" stroke-width="0.62923"/>
<path d="M9.5625 351.184C117.433 393.999 295.219 526.217 143.404 712.565" stroke="white" stroke-width="0.62923"/>
<path d="M0.0517578 348.254C106.181 395.219 278.707 534.231 119.78 714.553" stroke="white" stroke-width="0.62923"/>
<path d="M-9.45898 345.323C94.7689 396.369 261.775 541.966 95.9759 715.99" stroke="white" stroke-width="0.62923"/>
<path d="M-18.9717 342.393C83.1985 397.442 244.433 549.405 72.0112 716.869" stroke="white" stroke-width="0.62923"/>
<circle cx="93.5" cy="23.5" r="0.5" fill="white"/>
<circle cx="122.5" cy="23.5" r="0.5" fill="white"/>
<circle cx="97.5" cy="101.5" r="0.5" fill="white"/>
<circle cx="126.5" cy="101.5" r="0.5" fill="white"/>
<circle cx="155.5" cy="101.5" r="0.5" fill="white"/>
<circle cx="184.5" cy="101.5" r="0.5" fill="white"/>
<circle cx="99.5" cy="159.5" r="0.5" fill="white"/>
<circle cx="128.5" cy="159.5" r="0.5" fill="white"/>
<circle cx="163.5" cy="244.5" r="0.5" fill="white"/>
<circle cx="192.5" cy="244.5" r="0.5" fill="white"/>
<circle cx="221.5" cy="244.5" r="0.5" fill="white"/>
<circle cx="250.5" cy="244.5" r="0.5" fill="white"/>
<circle cx="279.5" cy="244.5" r="0.5" fill="white"/>
<circle cx="308.5" cy="244.5" r="0.5" fill="white"/>
<circle cx="93.5" cy="265.5" r="0.5" fill="white"/>
<circle cx="122.5" cy="265.5" r="0.5" fill="white"/>
<circle cx="97.5" cy="306.5" r="0.5" fill="white"/>
<circle cx="126.5" cy="306.5" r="0.5" fill="white"/>
<circle cx="155.5" cy="306.5" r="0.5" fill="white"/>
<circle cx="184.5" cy="306.5" r="0.5" fill="white"/>
<circle cx="287.5" cy="325.5" r="0.5" fill="white"/>
<circle cx="132.5" cy="25.5" r="0.5" fill="white"/>
<circle cx="161.5" cy="25.5" r="0.5" fill="white"/>
<circle cx="190.5" cy="25.5" r="0.5" fill="white"/>
<circle cx="219.5" cy="25.5" r="0.5" fill="white"/>
<circle cx="248.5" cy="25.5" r="0.5" fill="white"/>
<circle cx="277.5" cy="25.5" r="0.5" fill="white"/>
<circle cx="306.5" cy="25.5" r="0.5" fill="white"/>
<circle cx="99.5" cy="64.5" r="0.5" fill="white"/>
<circle cx="128.5" cy="64.5" r="0.5" fill="white"/>
<circle cx="157.5" cy="64.5" r="0.5" fill="white"/>
<circle cx="186.5" cy="64.5" r="0.5" fill="white"/>
<circle cx="215.5" cy="64.5" r="0.5" fill="white"/>
<circle cx="194.5" cy="103.5" r="0.5" fill="white"/>
<circle cx="223.5" cy="103.5" r="0.5" fill="white"/>
<circle cx="252.5" cy="103.5" r="0.5" fill="white"/>
<circle cx="281.5" cy="103.5" r="0.5" fill="white"/>
<circle cx="310.5" cy="103.5" r="0.5" fill="white"/>
<circle cx="225.5" cy="161.5" r="0.5" fill="white"/>
<circle cx="254.5" cy="161.5" r="0.5" fill="white"/>
<circle cx="283.5" cy="161.5" r="0.5" fill="white"/>
<circle cx="312.5" cy="161.5" r="0.5" fill="white"/>
<circle cx="132.5" cy="267.5" r="0.5" fill="white"/>
<circle cx="161.5" cy="267.5" r="0.5" fill="white"/>
<circle cx="190.5" cy="267.5" r="0.5" fill="white"/>
<circle cx="219.5" cy="267.5" r="0.5" fill="white"/>
<circle cx="248.5" cy="267.5" r="0.5" fill="white"/>
<circle cx="277.5" cy="267.5" r="0.5" fill="white"/>
<circle cx="306.5" cy="267.5" r="0.5" fill="white"/>
<circle cx="93.5" cy="327.5" r="0.5" fill="white"/>
<circle cx="122.5" cy="327.5" r="0.5" fill="white"/>
<circle cx="88.5" cy="52.5" r="0.5" fill="white"/>
<circle cx="117.5" cy="52.5" r="0.5" fill="white"/>
<circle cx="146.5" cy="52.5" r="0.5" fill="white"/>
<circle cx="127.5" cy="130.5" r="0.5" fill="white"/>
<circle cx="156.5" cy="130.5" r="0.5" fill="white"/>
<circle cx="185.5" cy="130.5" r="0.5" fill="white"/>
<circle cx="214.5" cy="130.5" r="0.5" fill="white"/>
<circle cx="243.5" cy="130.5" r="0.5" fill="white"/>
<circle cx="272.5" cy="130.5" r="0.5" fill="white"/>
<circle cx="301.5" cy="130.5" r="0.5" fill="white"/>
<circle cx="218.5" cy="190.5" r="0.5" fill="white"/>
<circle cx="247.5" cy="190.5" r="0.5" fill="white"/>
<circle cx="276.5" cy="190.5" r="0.5" fill="white"/>
<circle cx="305.5" cy="190.5" r="0.5" fill="white"/>
<circle cx="94.5" cy="296.5" r="0.5" fill="white"/>
<circle cx="123.5" cy="296.5" r="0.5" fill="white"/>
<circle cx="152.5" cy="296.5" r="0.5" fill="white"/>
<circle cx="181.5" cy="296.5" r="0.5" fill="white"/>
<circle cx="210.5" cy="296.5" r="0.5" fill="white"/>
<circle cx="239.5" cy="296.5" r="0.5" fill="white"/>
<circle cx="218.5" cy="335.5" r="0.5" fill="white"/>
<circle cx="247.5" cy="335.5" r="0.5" fill="white"/>
<circle cx="276.5" cy="335.5" r="0.5" fill="white"/>
<circle cx="120.5" cy="33.5" r="0.5" fill="white"/>
<circle cx="178.5" cy="31.5" r="0.5" fill="white"/>
<circle cx="236.5" cy="33.5" r="0.5" fill="white"/>
<circle cx="294.5" cy="35.5" r="0.5" fill="white"/>
<circle cx="143.5" cy="72.5" r="0.5" fill="white"/>
<circle cx="201.5" cy="70.5" r="0.5" fill="white"/>
<circle cx="259.5" cy="72.5" r="0.5" fill="white"/>
<circle cx="250.5" cy="111.5" r="0.5" fill="white"/>
<circle cx="308.5" cy="113.5" r="0.5" fill="white"/>
<circle cx="155.5" cy="188.5" r="0.5" fill="white"/>
<circle cx="213.5" cy="186.5" r="0.5" fill="white"/>
<circle cx="271.5" cy="188.5" r="0.5" fill="white"/>
<circle cx="329.5" cy="190.5" r="0.5" fill="white"/>
<circle cx="123.5" cy="260.5" r="0.5" fill="white"/>
<circle cx="181.5" cy="258.5" r="0.5" fill="white"/>
<circle cx="239.5" cy="260.5" r="0.5" fill="white"/>
<circle cx="297.5" cy="262.5" r="0.5" fill="white"/>
<circle cx="137.5" cy="302.5" r="0.5" fill="white"/>
<circle cx="195.5" cy="300.5" r="0.5" fill="white"/>
<circle cx="253.5" cy="302.5" r="0.5" fill="white"/>
<circle cx="302.5" cy="338.5" r="0.5" fill="white"/>
<circle cx="90.5" cy="340.5" r="0.5" fill="white"/>
<circle cx="119.5" cy="340.5" r="0.5" fill="white"/>
<circle cx="148.5" cy="340.5" r="0.5" fill="white"/>
<circle cx="177.5" cy="340.5" r="0.5" fill="white"/>
<circle cx="158.5" cy="342.5" r="0.5" fill="white"/>
<circle cx="187.5" cy="342.5" r="0.5" fill="white"/>
<circle cx="216.5" cy="342.5" r="0.5" fill="white"/>
<circle cx="245.5" cy="342.5" r="0.5" fill="white"/>
<circle cx="274.5" cy="342.5" r="0.5" fill="white"/>
<circle cx="274.5" cy="342.5" r="0.5" fill="white"/>
<circle cx="130.5" cy="336.5" r="0.5" fill="white"/>
<circle cx="188.5" cy="334.5" r="0.5" fill="white"/>
<circle cx="246.5" cy="336.5" r="0.5" fill="white"/>
<circle cx="124.5" cy="343.5" r="0.5" fill="white"/>
<circle cx="182.5" cy="341.5" r="0.5" fill="white"/>
<circle cx="240.5" cy="343.5" r="0.5" fill="white"/>
<circle r="0.5" transform="matrix(-1 0 0 1 299.5 354.5)" fill="white"/>
<circle r="0.5" transform="matrix(-1 0 0 1 241.5 356.5)" fill="white"/>
<circle r="0.5" transform="matrix(-1 0 0 1 183.5 354.5)" fill="white"/>
<circle r="0.5" transform="matrix(-1 0 0 1 125.5 352.5)" fill="white"/>
<circle r="0.5" transform="matrix(-1 0 0 1 215.5 372.5)" fill="white"/>
<circle r="0.5" transform="matrix(-1 0 0 1 186.5 372.5)" fill="white"/>
<circle r="0.5" transform="matrix(-1 0 0 1 157.5 372.5)" fill="white"/>
<circle r="0.5" transform="matrix(-1 0 0 1 128.5 372.5)" fill="white"/>
<circle r="0.5" transform="matrix(-1 0 0 1 99.5 372.5)" fill="white"/>
<circle r="0.5" transform="matrix(-1 0 0 1 262.5 370.5)" fill="white"/>
<circle r="0.5" transform="matrix(-1 0 0 1 204.5 368.5)" fill="white"/>
<circle r="0.5" transform="matrix(-1 0 0 1 146.5 366.5)" fill="white"/>
<circle r="0.5" transform="matrix(-1 0 0 1 88.5 368.5)" fill="white"/>
<circle r="0.5" transform="matrix(-1 0 0 1 268.5 377.5)" fill="white"/>
<circle r="0.5" transform="matrix(-1 0 0 1 210.5 375.5)" fill="white"/>
<circle r="0.5" transform="matrix(-1 0 0 1 152.5 373.5)" fill="white"/>
<circle r="0.5" transform="matrix(-1 0 0 1 94.5 375.5)" fill="white"/>
<circle cx="303.5" cy="48.5" r="0.5" fill="white"/>
<circle cx="332.5" cy="48.5" r="0.5" fill="white"/>
<circle cx="311.5" cy="87.5" r="0.5" fill="white"/>
<circle cx="340.5" cy="87.5" r="0.5" fill="white"/>
<circle cx="369.5" cy="87.5" r="0.5" fill="white"/>
<circle cx="398.5" cy="87.5" r="0.5" fill="white"/>
<circle cx="427.5" cy="87.5" r="0.5" fill="white"/>
<circle cx="456.5" cy="87.5" r="0.5" fill="white"/>
<circle cx="485.5" cy="87.5" r="0.5" fill="white"/>
<circle cx="342.5" cy="145.5" r="0.5" fill="white"/>
<circle cx="371.5" cy="145.5" r="0.5" fill="white"/>
<circle cx="400.5" cy="145.5" r="0.5" fill="white"/>
<circle cx="429.5" cy="145.5" r="0.5" fill="white"/>
<circle cx="458.5" cy="145.5" r="0.5" fill="white"/>
<circle cx="487.5" cy="145.5" r="0.5" fill="white"/>
<circle cx="516.5" cy="145.5" r="0.5" fill="white"/>
<circle cx="464.5" cy="230.5" r="0.5" fill="white"/>
<circle cx="493.5" cy="230.5" r="0.5" fill="white"/>
<circle cx="522.5" cy="230.5" r="0.5" fill="white"/>
<circle cx="551.5" cy="230.5" r="0.5" fill="white"/>
<circle cx="580.5" cy="230.5" r="0.5" fill="white"/>
<circle cx="307.5" cy="251.5" r="0.5" fill="white"/>
<circle cx="336.5" cy="251.5" r="0.5" fill="white"/>
<circle cx="365.5" cy="251.5" r="0.5" fill="white"/>
<circle cx="394.5" cy="251.5" r="0.5" fill="white"/>
<circle cx="423.5" cy="251.5" r="0.5" fill="white"/>
<circle cx="311.5" cy="292.5" r="0.5" fill="white"/>
<circle cx="340.5" cy="292.5" r="0.5" fill="white"/>
<circle cx="369.5" cy="292.5" r="0.5" fill="white"/>
<circle cx="398.5" cy="292.5" r="0.5" fill="white"/>
<circle cx="427.5" cy="292.5" r="0.5" fill="white"/>
<circle cx="456.5" cy="292.5" r="0.5" fill="white"/>
<circle cx="485.5" cy="292.5" r="0.5" fill="white"/>
<circle cx="342.5" cy="50.5" r="0.5" fill="white"/>
<circle cx="371.5" cy="50.5" r="0.5" fill="white"/>
<circle cx="400.5" cy="50.5" r="0.5" fill="white"/>
<circle cx="429.5" cy="50.5" r="0.5" fill="white"/>
<circle cx="458.5" cy="50.5" r="0.5" fill="white"/>
<circle cx="487.5" cy="50.5" r="0.5" fill="white"/>
<circle cx="516.5" cy="50.5" r="0.5" fill="white"/>
<circle cx="495.5" cy="89.5" r="0.5" fill="white"/>
<circle cx="524.5" cy="89.5" r="0.5" fill="white"/>
<circle cx="553.5" cy="89.5" r="0.5" fill="white"/>
<circle cx="582.5" cy="89.5" r="0.5" fill="white"/>
<circle cx="526.5" cy="147.5" r="0.5" fill="white"/>
<circle cx="555.5" cy="147.5" r="0.5" fill="white"/>
<circle cx="584.5" cy="147.5" r="0.5" fill="white"/>
<circle cx="404.5" cy="253.5" r="0.5" fill="white"/>
<circle cx="433.5" cy="253.5" r="0.5" fill="white"/>
<circle cx="462.5" cy="253.5" r="0.5" fill="white"/>
<circle cx="491.5" cy="253.5" r="0.5" fill="white"/>
<circle cx="520.5" cy="253.5" r="0.5" fill="white"/>
<circle cx="549.5" cy="253.5" r="0.5" fill="white"/>
<circle cx="578.5" cy="253.5" r="0.5" fill="white"/>
<circle cx="495.5" cy="294.5" r="0.5" fill="white"/>
<circle cx="524.5" cy="294.5" r="0.5" fill="white"/>
<circle cx="553.5" cy="294.5" r="0.5" fill="white"/>
<circle cx="553.5" cy="294.5" r="0.5" fill="white"/>
<circle cx="336.5" cy="313.5" r="0.5" fill="white"/>
<circle cx="365.5" cy="313.5" r="0.5" fill="white"/>
<circle cx="394.5" cy="313.5" r="0.5" fill="white"/>
<circle cx="423.5" cy="313.5" r="0.5" fill="white"/>
<circle cx="302.5" cy="38.5" r="0.5" fill="white"/>
<circle cx="331.5" cy="38.5" r="0.5" fill="white"/>
<circle cx="360.5" cy="38.5" r="0.5" fill="white"/>
<circle cx="389.5" cy="38.5" r="0.5" fill="white"/>
<circle cx="418.5" cy="38.5" r="0.5" fill="white"/>
<circle cx="428.5" cy="116.5" r="0.5" fill="white"/>
<circle cx="457.5" cy="116.5" r="0.5" fill="white"/>
<circle cx="486.5" cy="116.5" r="0.5" fill="white"/>
<circle cx="515.5" cy="116.5" r="0.5" fill="white"/>
<circle cx="544.5" cy="116.5" r="0.5" fill="white"/>
<circle cx="573.5" cy="116.5" r="0.5" fill="white"/>
<circle cx="490.5" cy="176.5" r="0.5" fill="white"/>
<circle cx="519.5" cy="176.5" r="0.5" fill="white"/>
<circle cx="548.5" cy="176.5" r="0.5" fill="white"/>
<circle cx="577.5" cy="176.5" r="0.5" fill="white"/>
<circle cx="296.5" cy="261.5" r="0.5" fill="white"/>
<circle cx="325.5" cy="261.5" r="0.5" fill="white"/>
<circle cx="366.5" cy="282.5" r="0.5" fill="white"/>
<circle cx="395.5" cy="282.5" r="0.5" fill="white"/>
<circle cx="424.5" cy="282.5" r="0.5" fill="white"/>
<circle cx="453.5" cy="282.5" r="0.5" fill="white"/>
<circle cx="482.5" cy="282.5" r="0.5" fill="white"/>
<circle cx="511.5" cy="282.5" r="0.5" fill="white"/>
<circle cx="540.5" cy="282.5" r="0.5" fill="white"/>
<circle cx="490.5" cy="321.5" r="0.5" fill="white"/>
<circle cx="519.5" cy="321.5" r="0.5" fill="white"/>
<circle cx="548.5" cy="321.5" r="0.5" fill="white"/>
<circle cx="326.5" cy="36.5" r="0.5" fill="white"/>
<circle cx="384.5" cy="38.5" r="0.5" fill="white"/>
<circle cx="442.5" cy="36.5" r="0.5" fill="white"/>
<circle cx="558.5" cy="36.5" r="0.5" fill="white"/>
<circle cx="607.5" cy="77.5" r="0.5" fill="white"/>
<circle cx="365.5" cy="116.5" r="0.5" fill="white"/>
<circle cx="423.5" cy="114.5" r="0.5" fill="white"/>
<circle cx="481.5" cy="112.5" r="0.5" fill="white"/>
<circle cx="539.5" cy="114.5" r="0.5" fill="white"/>
<circle cx="597.5" cy="116.5" r="0.5" fill="white"/>
<circle cx="396.5" cy="155.5" r="0.5" fill="white"/>
<circle cx="454.5" cy="153.5" r="0.5" fill="white"/>
<circle cx="512.5" cy="151.5" r="0.5" fill="white"/>
<circle cx="570.5" cy="153.5" r="0.5" fill="white"/>
<circle cx="301.5" cy="192.5" r="0.5" fill="white"/>
<circle cx="476.5" cy="190.5" r="0.5" fill="white"/>
<circle cx="534.5" cy="192.5" r="0.5" fill="white"/>
<circle cx="592.5" cy="193.5" r="0.5" fill="white"/>
<circle cx="306.5" cy="225.5" r="0.5" fill="white"/>
<circle cx="364.5" cy="227.5" r="0.5" fill="white"/>
<circle cx="422.5" cy="225.5" r="0.5" fill="white"/>
<circle cx="480.5" cy="223.5" r="0.5" fill="white"/>
<circle cx="538.5" cy="225.5" r="0.5" fill="white"/>
<circle cx="596.5" cy="227.5" r="0.5" fill="white"/>
<circle cx="307.5" cy="308.5" r="0.5" fill="white"/>
<circle cx="365.5" cy="310.5" r="0.5" fill="white"/>
<circle cx="423.5" cy="308.5" r="0.5" fill="white"/>
<circle cx="481.5" cy="306.5" r="0.5" fill="white"/>
<circle cx="567.5" cy="301.5" r="0.5" fill="white"/>
<circle cx="334.5" cy="21.5" r="0.5" fill="white"/>
<circle cx="392.5" cy="19.5" r="0.5" fill="white"/>
<circle cx="450.5" cy="17.5" r="0.5" fill="white"/>
<circle cx="508.5" cy="19.5" r="0.5" fill="white"/>
<circle cx="566.5" cy="21.5" r="0.5" fill="white"/>
<circle cx="299.5" cy="58.5" r="0.5" fill="white"/>
<circle cx="357.5" cy="60.5" r="0.5" fill="white"/>
<circle cx="415.5" cy="58.5" r="0.5" fill="white"/>
<circle cx="473.5" cy="56.5" r="0.5" fill="white"/>
<circle cx="531.5" cy="58.5" r="0.5" fill="white"/>
<circle cx="589.5" cy="60.5" r="0.5" fill="white"/>
<circle cx="289.5" cy="97.5" r="0.5" fill="white"/>
<circle cx="347.5" cy="99.5" r="0.5" fill="white"/>
<circle cx="405.5" cy="97.5" r="0.5" fill="white"/>
<circle cx="580.5" cy="99.5" r="0.5" fill="white"/>
<circle cx="454.5" cy="134.5" r="0.5" fill="white"/>
<circle cx="427.5" cy="174.5" r="0.5" fill="white"/>
<circle cx="485.5" cy="172.5" r="0.5" fill="white"/>
<circle cx="543.5" cy="174.5" r="0.5" fill="white"/>
<circle cx="601.5" cy="176.5" r="0.5" fill="white"/>
<circle cx="274.5" cy="213.5" r="0.5" fill="white"/>
<circle cx="507.5" cy="213.5" r="0.5" fill="white"/>
<circle cx="279.5" cy="246.5" r="0.5" fill="white"/>
<circle cx="337.5" cy="248.5" r="0.5" fill="white"/>
<circle cx="395.5" cy="246.5" r="0.5" fill="white"/>
<circle cx="511.5" cy="246.5" r="0.5" fill="white"/>
<circle cx="569.5" cy="248.5" r="0.5" fill="white"/>
<circle cx="293.5" cy="288.5" r="0.5" fill="white"/>
<circle cx="351.5" cy="290.5" r="0.5" fill="white"/>
<circle cx="409.5" cy="288.5" r="0.5" fill="white"/>
<circle cx="467.5" cy="286.5" r="0.5" fill="white"/>
<circle cx="525.5" cy="288.5" r="0.5" fill="white"/>
<circle cx="574.5" cy="324.5" r="0.5" fill="white"/>
<circle cx="304.5" cy="326.5" r="0.5" fill="white"/>
<circle cx="333.5" cy="326.5" r="0.5" fill="white"/>
<circle cx="362.5" cy="326.5" r="0.5" fill="white"/>
<circle cx="391.5" cy="326.5" r="0.5" fill="white"/>
<circle cx="420.5" cy="326.5" r="0.5" fill="white"/>
<circle cx="449.5" cy="326.5" r="0.5" fill="white"/>
<circle cx="478.5" cy="326.5" r="0.5" fill="white"/>
<circle cx="459.5" cy="328.5" r="0.5" fill="white"/>
<circle cx="488.5" cy="328.5" r="0.5" fill="white"/>
<circle cx="517.5" cy="328.5" r="0.5" fill="white"/>
<circle cx="546.5" cy="328.5" r="0.5" fill="white"/>
<circle cx="546.5" cy="328.5" r="0.5" fill="white"/>
<circle cx="344.5" cy="324.5" r="0.5" fill="white"/>
<circle cx="402.5" cy="322.5" r="0.5" fill="white"/>
<circle cx="460.5" cy="320.5" r="0.5" fill="white"/>
<circle cx="518.5" cy="322.5" r="0.5" fill="white"/>
<circle cx="583.5" cy="290.5" r="0.5" fill="white"/>
<circle cx="280.5" cy="329.5" r="0.5" fill="white"/>
<circle cx="338.5" cy="331.5" r="0.5" fill="white"/>
<circle cx="396.5" cy="329.5" r="0.5" fill="white"/>
<circle cx="454.5" cy="327.5" r="0.5" fill="white"/>
<circle cx="512.5" cy="329.5" r="0.5" fill="white"/>
<circle r="0.5" transform="matrix(-1 0 0 1 571.5 340.5)" fill="white"/>
<circle r="0.5" transform="matrix(-1 0 0 1 513.5 342.5)" fill="white"/>
<circle r="0.5" transform="matrix(-1 0 0 1 455.5 340.5)" fill="white"/>
<circle r="0.5" transform="matrix(-1 0 0 1 397.5 338.5)" fill="white"/>
<circle r="0.5" transform="matrix(-1 0 0 1 339.5 340.5)" fill="white"/>
<circle r="0.5" transform="matrix(-1 0 0 1 304.5 356.5)" fill="white"/>
<circle r="0.5" transform="matrix(-1 0 0 1 516.5 358.5)" fill="white"/>
<circle r="0.5" transform="matrix(-1 0 0 1 487.5 358.5)" fill="white"/>
<circle r="0.5" transform="matrix(-1 0 0 1 458.5 358.5)" fill="white"/>
<circle r="0.5" transform="matrix(-1 0 0 1 429.5 358.5)" fill="white"/>
<circle r="0.5" transform="matrix(-1 0 0 1 400.5 358.5)" fill="white"/>
<circle r="0.5" transform="matrix(-1 0 0 1 371.5 358.5)" fill="white"/>
<circle r="0.5" transform="matrix(-1 0 0 1 342.5 358.5)" fill="white"/>
<circle r="0.5" transform="matrix(-1 0 0 1 342.5 358.5)" fill="white"/>
<circle r="0.5" transform="matrix(-1 0 0 1 361.5 360.5)" fill="white"/>
<circle r="0.5" transform="matrix(-1 0 0 1 332.5 360.5)" fill="white"/>
<circle r="0.5" transform="matrix(-1 0 0 1 332.5 360.5)" fill="white"/>
<circle r="0.5" transform="matrix(-1 0 0 1 534.5 356.5)" fill="white"/>
<circle r="0.5" transform="matrix(-1 0 0 1 476.5 354.5)" fill="white"/>
<circle r="0.5" transform="matrix(-1 0 0 1 418.5 352.5)" fill="white"/>
<circle r="0.5" transform="matrix(-1 0 0 1 360.5 354.5)" fill="white"/>
<circle r="0.5" transform="matrix(-1 0 0 1 540.5 363.5)" fill="white"/>
<circle r="0.5" transform="matrix(-1 0 0 1 482.5 361.5)" fill="white"/>
<circle r="0.5" transform="matrix(-1 0 0 1 366.5 361.5)" fill="white"/>
<circle r="0.5" transform="matrix(-1 0 0 1 308.5 363.5)" fill="white"/>
</g>
<defs>
<filter id="filter0_f_1332_13612" x="390.975" y="-334.922" width="729.928" height="729.928" filterUnits="userSpaceOnUse" color-interpolation-filters="sRGB">
<feFlood flood-opacity="0" result="BackgroundImageFix"/>
<feBlend mode="normal" in="SourceGraphic" in2="BackgroundImageFix" result="shape"/>
<feGaussianBlur stdDeviation="96.0938" result="effect1_foregroundBlur_1332_13612"/>
</filter>
<filter id="filter1_f_1332_13612" x="-186.356" y="-336.075" width="729.928" height="729.928" filterUnits="userSpaceOnUse" color-interpolation-filters="sRGB">
<feFlood flood-opacity="0" result="BackgroundImageFix"/>
<feBlend mode="normal" in="SourceGraphic" in2="BackgroundImageFix" result="shape"/>
<feGaussianBlur stdDeviation="96.0938" result="effect1_foregroundBlur_1332_13612"/>
</filter>
<filter id="filter2_f_1332_13612" x="103.078" y="1.02185" width="729.928" height="729.928" filterUnits="userSpaceOnUse" color-interpolation-filters="sRGB">
<feFlood flood-opacity="0" result="BackgroundImageFix"/>
<feBlend mode="normal" in="SourceGraphic" in2="BackgroundImageFix" result="shape"/>
<feGaussianBlur stdDeviation="96.0938" result="effect1_foregroundBlur_1332_13612"/>
</filter>
<filter id="filter3_f_1332_13612" x="-26.0723" y="-131.203" width="729.928" height="729.928" filterUnits="userSpaceOnUse" color-interpolation-filters="sRGB">
<feFlood flood-opacity="0" result="BackgroundImageFix"/>
<feBlend mode="normal" in="SourceGraphic" in2="BackgroundImageFix" result="shape"/>
<feGaussianBlur stdDeviation="96.0938" result="effect1_foregroundBlur_1332_13612"/>
</filter>
<filter id="filter4_f_1332_13612" x="-145.63" y="-99.3153" width="1012" height="688.962" filterUnits="userSpaceOnUse" color-interpolation-filters="sRGB">
<feFlood flood-opacity="0" result="BackgroundImageFix"/>
<feBlend mode="normal" in="SourceGraphic" in2="BackgroundImageFix" result="shape"/>
<feGaussianBlur stdDeviation="90.3235" result="effect1_foregroundBlur_1332_13612"/>
</filter>
<filter id="filter5_f_1332_13612" x="-296.984" y="-555.066" width="1314.65" height="1274.57" filterUnits="userSpaceOnUse" color-interpolation-filters="sRGB">
<feFlood flood-opacity="0" result="BackgroundImageFix"/>
<feBlend mode="normal" in="SourceGraphic" in2="BackgroundImageFix" result="shape"/>
<feGaussianBlur stdDeviation="207.5" result="effect1_foregroundBlur_1332_13612"/>
</filter>
<filter id="filter6_f_1332_13612" x="-248.16" y="-218.542" width="1216.17" height="1184.24" filterUnits="userSpaceOnUse" color-interpolation-filters="sRGB">
<feFlood flood-opacity="0" result="BackgroundImageFix"/>
<feBlend mode="normal" in="SourceGraphic" in2="BackgroundImageFix" result="shape"/>
<feGaussianBlur stdDeviation="207.5" result="effect1_foregroundBlur_1332_13612"/>
</filter>
<filter id="filter7_f_1332_13612" x="-33.3354" y="-354.073" width="787.52" height="796.42" filterUnits="userSpaceOnUse" color-interpolation-filters="sRGB">
<feFlood flood-opacity="0" result="BackgroundImageFix"/>
<feBlend mode="normal" in="SourceGraphic" in2="BackgroundImageFix" result="shape"/>
<feGaussianBlur stdDeviation="122.059" result="effect1_foregroundBlur_1332_13612"/>
</filter>
<filter id="filter8_f_1332_13612" x="-296.984" y="-308.872" width="1314.65" height="1274.57" filterUnits="userSpaceOnUse" color-interpolation-filters="sRGB">
<feFlood flood-opacity="0" result="BackgroundImageFix"/>
<feBlend mode="normal" in="SourceGraphic" in2="BackgroundImageFix" result="shape"/>
<feGaussianBlur stdDeviation="207.5" result="effect1_foregroundBlur_1332_13612"/>
</filter>
<filter id="filter9_f_1332_13612" x="-379.983" y="-684.362" width="1480.7" height="1426.89" filterUnits="userSpaceOnUse" color-interpolation-filters="sRGB">
<feFlood flood-opacity="0" result="BackgroundImageFix"/>
<feBlend mode="normal" in="SourceGraphic" in2="BackgroundImageFix" result="shape"/>
<feGaussianBlur stdDeviation="207.5" result="effect1_foregroundBlur_1332_13612"/>
</filter>
<filter id="filter10_f_1332_13612" x="71.6338" y="-302.318" width="1347.53" height="1304.73" filterUnits="userSpaceOnUse" color-interpolation-filters="sRGB">
<feFlood flood-opacity="0" result="BackgroundImageFix"/>
<feBlend mode="normal" in="SourceGraphic" in2="BackgroundImageFix" result="shape"/>
<feGaussianBlur stdDeviation="207.5" result="effect1_foregroundBlur_1332_13612"/>
</filter>
<filter id="filter11_f_1332_13612" x="-614.336" y="-389.65" width="1442.74" height="1392.06" filterUnits="userSpaceOnUse" color-interpolation-filters="sRGB">
<feFlood flood-opacity="0" result="BackgroundImageFix"/>
<feBlend mode="normal" in="SourceGraphic" in2="BackgroundImageFix" result="shape"/>
<feGaussianBlur stdDeviation="207.5" result="effect1_foregroundBlur_1332_13612"/>
</filter>
<filter id="filter12_f_1332_13612" x="-547" y="-498" width="1228" height="1195" filterUnits="userSpaceOnUse" color-interpolation-filters="sRGB">
<feFlood flood-opacity="0" result="BackgroundImageFix"/>
<feBlend mode="normal" in="SourceGraphic" in2="BackgroundImageFix" result="shape"/>
<feGaussianBlur stdDeviation="207.5" result="effect1_foregroundBlur_1332_13612"/>
</filter>
<clipPath id="clip0_1332_13612">
<rect width="405" height="720" fill="white" transform="matrix(0 -1 -1 0 720 405)"/>
</clipPath>
</defs>
</svg>
