<svg width="720" height="405" viewBox="0 0 720 405" fill="none" xmlns="http://www.w3.org/2000/svg">
<g clip-path="url(#clip0_1242_4730)">
<rect width="405" height="720" transform="matrix(0 -1 -1 0 720 405)" fill="#8A88D1"/>
<g filter="url(#filter0_f_1242_4730)">
<circle cx="755.939" cy="30.0422" r="172.777" transform="rotate(-90 755.939 30.0422)" fill="#BBB8F9"/>
</g>
<g filter="url(#filter1_f_1242_4730)">
<circle cx="178.608" cy="28.8891" r="172.777" transform="rotate(-90 178.608 28.8891)" fill="#4797D8"/>
</g>
<g filter="url(#filter2_f_1242_4730)">
<circle cx="468.042" cy="365.986" r="172.777" transform="rotate(-90 468.042 365.986)" fill="#9876C6"/>
</g>
<g filter="url(#filter3_f_1242_4730)">
<circle cx="338.892" cy="233.761" r="172.777" transform="rotate(-90 338.892 233.761)" fill="#F9DBE5"/>
</g>
<g filter="url(#filter4_f_1242_4730)">
<mask id="mask0_1242_4730" style="mask-type:alpha" maskUnits="userSpaceOnUse" x="17" y="81" width="685" height="328">
<rect x="17.9287" y="81.3318" width="683.529" height="327.668" rx="48.8235" fill="#C4C4C4"/>
</mask>
<g mask="url(#mask0_1242_4730)">
<g filter="url(#filter5_f_1242_4730)">
<ellipse cx="360.34" cy="82.2172" rx="242.325" ry="222.283" fill="#EE89FF"/>
</g>
<g filter="url(#filter6_f_1242_4730)">
<ellipse cx="359.927" cy="373.576" rx="193.087" ry="177.118" fill="#FF44F8"/>
</g>
<g filter="url(#filter7_f_1242_4730)">
<ellipse cx="360.425" cy="44.1369" rx="149.643" ry="154.093" fill="#FFC4BC"/>
</g>
<g filter="url(#filter8_f_1242_4730)">
<ellipse cx="360.34" cy="328.411" rx="242.325" ry="222.283" fill="#A431FF"/>
</g>
<g filter="url(#filter9_f_1242_4730)">
<ellipse cx="360.369" cy="29.082" rx="325.352" ry="298.444" fill="#6631FF"/>
</g>
</g>
</g>
<mask id="mask1_1242_4730" style="mask-type:alpha" maskUnits="userSpaceOnUse" x="-73" y="-6" width="865" height="415">
<rect x="-72.3945" y="-6" width="864.177" height="414.266" rx="48.8235" fill="white"/>
</mask>
<g mask="url(#mask1_1242_4730)">
<rect x="-72.3945" y="-6" width="864.177" height="414.266" rx="48.8235" fill="#FF87DD"/>
<g filter="url(#filter10_f_1242_4730)">
<ellipse cx="734.416" cy="-4.8804" rx="306.368" ry="281.029" fill="#EE89FF"/>
</g>
<g filter="url(#filter11_f_1242_4730)">
<ellipse cx="745.398" cy="350.045" rx="258.765" ry="237.363" fill="#FF44F8"/>
</g>
<g filter="url(#filter12_f_1242_4730)">
<ellipse cx="107.032" cy="306.379" rx="306.368" ry="281.029" fill="#A431FF"/>
</g>
<g filter="url(#filter13_f_1242_4730)">
<ellipse cx="187.592" cy="-72.0588" rx="411.338" ry="377.318" fill="#6631FF"/>
</g>
</g>
<g filter="url(#filter14_f_1242_4730)">
<circle cx="597.576" cy="132.286" r="172.777" transform="rotate(-90 597.576 132.286)" fill="#8B8EC1"/>
</g>
<path d="M702.611 572.888C607.987 517.066 461.051 367.403 630.295 215.326" stroke="white" stroke-width="0.62923"/>
<path d="M-26.7139 348.205C67.91 404.027 214.847 553.69 45.6029 705.768" stroke="white" stroke-width="0.62923"/>
<path d="M693.607 570.114C601.219 510.665 460.196 355.417 635.21 210.016" stroke="white" stroke-width="0.62923"/>
<path d="M684.604 567.34C594.59 504.354 459.693 343.754 640.213 205.249" stroke="white" stroke-width="0.62923"/>
<path d="M675.6 564.566C588.096 498.137 459.528 332.428 645.282 201.026" stroke="white" stroke-width="0.62923"/>
<path d="M666.595 561.792C581.733 492.02 459.686 321.45 650.397 197.35" stroke="white" stroke-width="0.62923"/>
<path d="M657.592 559.019C575.499 486.008 460.159 310.834 655.537 194.222" stroke="white" stroke-width="0.62923"/>
<path d="M648.587 556.245C569.387 480.106 460.926 300.591 660.679 191.643" stroke="white" stroke-width="0.62923"/>
<path d="M639.583 553.471C563.395 474.318 461.976 290.733 665.804 189.612" stroke="white" stroke-width="0.62923"/>
<path d="M630.579 550.697C557.518 468.65 463.293 281.27 670.889 188.129" stroke="white" stroke-width="0.62923"/>
<path d="M621.575 547.923C551.75 463.105 464.862 272.212 675.913 187.191" stroke="white" stroke-width="0.62923"/>
<path d="M612.571 545.149C546.087 457.687 466.667 263.569 680.856 186.795" stroke="white" stroke-width="0.62923"/>
<path d="M603.566 542.376C540.524 452.401 468.69 255.349 685.695 186.938" stroke="white" stroke-width="0.62923"/>
<path d="M594.563 539.602C535.057 447.25 470.918 247.561 690.413 187.616" stroke="white" stroke-width="0.62923"/>
<path d="M585.559 536.828C529.678 442.239 473.33 240.213 694.984 188.824" stroke="white" stroke-width="0.62923"/>
<path d="M576.555 534.054C524.384 437.369 475.912 233.31 699.392 190.555" stroke="white" stroke-width="0.62923"/>
<path d="M567.551 531.28C519.168 432.645 478.646 226.86 703.615 192.802" stroke="white" stroke-width="0.62923"/>
<path d="M558.547 528.506C514.025 428.069 481.512 220.868 707.633 195.559" stroke="white" stroke-width="0.62923"/>
<path d="M549.543 525.732C508.949 423.645 484.495 215.338 711.427 198.816" stroke="white" stroke-width="0.62923"/>
<path d="M540.539 522.958C503.935 419.373 487.576 210.276 714.978 202.565" stroke="white" stroke-width="0.62923"/>
<path d="M531.534 520.185C498.974 415.258 490.735 205.683 718.265 206.796" stroke="white" stroke-width="0.62923"/>
<path d="M522.531 517.411C494.064 411.301 493.958 201.564 721.274 211.499" stroke="white" stroke-width="0.62923"/>
<path d="M513.526 514.637C489.195 407.503 497.222 197.92 723.981 216.661" stroke="white" stroke-width="0.62923"/>
<path d="M504.523 511.863C484.364 403.866 500.512 194.752 726.374 222.272" stroke="white" stroke-width="0.62923"/>
<path d="M495.519 509.089C479.562 400.392 503.806 192.061 728.431 228.318" stroke="white" stroke-width="0.62923"/>
<path d="M486.515 506.315C474.785 397.081 507.089 189.847 730.139 234.787" stroke="white" stroke-width="0.62923"/>
<path d="M477.511 503.541C470.026 393.934 510.341 188.109 731.481 241.664" stroke="white" stroke-width="0.62923"/>
<path d="M468.507 500.768C465.277 390.953 513.543 186.845 732.44 248.935" stroke="white" stroke-width="0.62923"/>
<path d="M459.503 497.994C460.534 388.136 516.678 186.054 733.003 256.584" stroke="white" stroke-width="0.62923"/>
<path d="M450.499 495.22C455.789 385.485 519.726 185.731 733.154 264.597" stroke="white" stroke-width="0.62923"/>
<path d="M441.495 492.446C451.036 382.999 522.671 185.875 732.88 272.957" stroke="white" stroke-width="0.62923"/>
<path d="M432.49 489.672C446.268 380.677 525.492 186.479 732.167 281.646" stroke="white" stroke-width="0.62923"/>
<path d="M423.486 486.898C441.48 378.519 528.175 187.539 731.004 290.649" stroke="white" stroke-width="0.62923"/>
<path d="M414.482 484.124C436.665 376.525 530.7 189.05 729.378 299.947" stroke="white" stroke-width="0.62923"/>
<path d="M405.479 481.351C431.817 374.692 533.05 191.004 727.279 309.522" stroke="white" stroke-width="0.62923"/>
<path d="M396.475 478.577C426.929 373.02 535.209 193.395 724.696 319.355" stroke="white" stroke-width="0.62923"/>
<path d="M387.471 475.803C421.995 371.506 537.159 196.215 721.619 329.428" stroke="white" stroke-width="0.62923"/>
<path d="M378.466 473.029C417.008 370.149 538.882 199.456 718.038 339.721" stroke="white" stroke-width="0.62923"/>
<path d="M369.462 470.255C411.965 368.947 540.366 203.108 713.948 350.214" stroke="white" stroke-width="0.62923"/>
<path d="M360.458 467.481C406.857 367.898 541.592 207.162 709.34 360.888" stroke="white" stroke-width="0.62923"/>
<path d="M351.455 464.707C401.681 366.998 542.547 211.608 704.208 371.723" stroke="white" stroke-width="0.62923"/>
<path d="M342.45 461.933C396.427 366.245 543.212 216.434 698.543 382.697" stroke="white" stroke-width="0.62923"/>
<path d="M333.446 459.16C391.092 365.636 543.577 221.629 692.344 393.79" stroke="white" stroke-width="0.62923"/>
<path d="M324.442 456.386C385.672 365.168 543.625 227.182 685.605 404.982" stroke="white" stroke-width="0.62923"/>
<path d="M315.438 453.612C380.159 364.837 543.344 233.079 678.322 416.251" stroke="white" stroke-width="0.62923"/>
<path d="M306.435 450.838C374.548 364.639 542.72 239.308 670.494 427.576" stroke="white" stroke-width="0.62923"/>
<path d="M297.43 448.064C368.835 364.571 541.739 245.855 662.118 438.936" stroke="white" stroke-width="0.62923"/>
<path d="M288.426 445.29C363.015 364.629 540.392 252.707 653.193 450.31" stroke="white" stroke-width="0.62923"/>
<path d="M279.422 442.516C357.082 364.808 538.666 259.848 643.721 461.676" stroke="white" stroke-width="0.62923"/>
<path d="M270.418 439.743C351.033 365.104 536.551 267.264 633.7 473.014" stroke="white" stroke-width="0.62923"/>
<path d="M261.414 436.969C344.863 365.512 534.034 274.939 623.132 484.302" stroke="white" stroke-width="0.62923"/>
<path d="M252.41 434.195C338.567 366.028 531.108 282.858 612.021 495.518" stroke="white" stroke-width="0.62923"/>
<path d="M243.406 431.421C332.141 366.646 527.763 291.004 600.369 506.642" stroke="white" stroke-width="0.62923"/>
<path d="M234.401 428.647C325.581 367.361 523.989 299.362 588.179 517.653" stroke="white" stroke-width="0.62923"/>
<path d="M225.397 425.873C318.885 368.169 519.78 307.914 575.458 528.53" stroke="white" stroke-width="0.62923"/>
<path d="M216.394 423.099C312.049 369.064 515.129 316.644 562.21 539.253" stroke="white" stroke-width="0.62923"/>
<path d="M207.39 420.326C305.068 370.039 510.028 325.534 548.442 549.8" stroke="white" stroke-width="0.62923"/>
<path d="M198.386 417.552C297.941 371.091 504.472 334.566 534.161 560.154" stroke="white" stroke-width="0.62923"/>
<path d="M189.382 414.778C290.663 372.212 498.456 343.723 519.376 570.292" stroke="white" stroke-width="0.62923"/>
<path d="M180.378 412.004C283.234 373.398 491.975 352.987 504.093 580.197" stroke="white" stroke-width="0.62923"/>
<path d="M171.374 409.23C275.649 374.641 485.025 362.34 488.324 589.849" stroke="white" stroke-width="0.62923"/>
<path d="M162.37 406.456C267.908 375.937 477.603 371.764 472.078 599.229" stroke="white" stroke-width="0.62923"/>
<path d="M153.366 403.682C260.008 377.278 469.708 381.239 455.367 608.319" stroke="white" stroke-width="0.62923"/>
<path d="M144.362 400.909C251.948 378.659 461.336 390.748 438.201 617.102" stroke="white" stroke-width="0.62923"/>
<path d="M135.357 398.135C243.725 380.074 452.487 400.273 420.592 625.559" stroke="white" stroke-width="0.62923"/>
<path d="M126.354 395.361C235.34 381.515 443.161 409.794 402.555 633.674" stroke="white" stroke-width="0.62923"/>
<path d="M117.349 392.587C226.79 382.978 433.359 419.294 384.102 641.431" stroke="white" stroke-width="0.62923"/>
<path d="M108.346 389.813C218.077 384.455 423.082 428.753 365.249 648.813" stroke="white" stroke-width="0.62923"/>
<path d="M99.3408 387.039C209.198 385.94 412.331 438.154 346.008 655.806" stroke="white" stroke-width="0.62923"/>
<path d="M90.3369 384.265C200.154 387.427 401.11 447.478 326.397 662.395" stroke="white" stroke-width="0.62923"/>
<path d="M81.333 381.492C190.945 388.909 389.421 456.707 306.431 668.565" stroke="white" stroke-width="0.62923"/>
<path d="M72.3291 378.718C181.571 390.379 377.269 465.823 286.127 674.304" stroke="white" stroke-width="0.62923"/>
<path d="M63.3252 375.944C172.033 391.833 364.658 474.808 265.501 679.598" stroke="white" stroke-width="0.62923"/>
<path d="M54.3213 373.17C162.331 393.262 351.594 483.644 244.57 684.435" stroke="white" stroke-width="0.62923"/>
<path d="M45.3174 370.396C152.467 394.661 338.083 492.314 223.354 688.804" stroke="white" stroke-width="0.62923"/>
<path d="M36.3135 367.622C142.441 396.024 324.131 500.8 201.87 692.694" stroke="white" stroke-width="0.62923"/>
<path d="M27.3096 364.848C132.256 397.344 309.747 509.086 180.137 696.095" stroke="white" stroke-width="0.62923"/>
<path d="M18.3057 362.074C121.913 398.615 294.938 517.156 158.174 698.998" stroke="white" stroke-width="0.62923"/>
<path d="M9.30078 359.301C111.414 399.831 279.712 524.992 135.999 701.394" stroke="white" stroke-width="0.62923"/>
<path d="M0.296875 356.527C100.761 400.986 264.08 532.579 113.635 703.276" stroke="white" stroke-width="0.62923"/>
<path d="M-8.70605 353.753C89.9591 402.074 248.052 539.901 91.1016 704.636" stroke="white" stroke-width="0.62923"/>
<path d="M-17.7109 350.979C79.0063 403.09 231.636 546.943 68.416 705.468" stroke="white" stroke-width="0.62923"/>
<circle cx="93.5" cy="23.5" r="0.5" fill="white"/>
<circle cx="122.5" cy="23.5" r="0.5" fill="white"/>
<circle cx="97.5" cy="101.5" r="0.5" fill="white"/>
<circle cx="126.5" cy="101.5" r="0.5" fill="white"/>
<circle cx="155.5" cy="101.5" r="0.5" fill="white"/>
<circle cx="184.5" cy="101.5" r="0.5" fill="white"/>
<circle cx="99.5" cy="159.5" r="0.5" fill="white"/>
<circle cx="128.5" cy="159.5" r="0.5" fill="white"/>
<circle cx="157.5" cy="159.5" r="0.5" fill="white"/>
<circle cx="186.5" cy="159.5" r="0.5" fill="white"/>
<circle cx="215.5" cy="159.5" r="0.5" fill="white"/>
<circle cx="163.5" cy="244.5" r="0.5" fill="white"/>
<circle cx="192.5" cy="244.5" r="0.5" fill="white"/>
<circle cx="221.5" cy="244.5" r="0.5" fill="white"/>
<circle cx="250.5" cy="244.5" r="0.5" fill="white"/>
<circle cx="279.5" cy="244.5" r="0.5" fill="white"/>
<circle cx="308.5" cy="244.5" r="0.5" fill="white"/>
<circle cx="93.5" cy="265.5" r="0.5" fill="white"/>
<circle cx="122.5" cy="265.5" r="0.5" fill="white"/>
<circle cx="97.5" cy="306.5" r="0.5" fill="white"/>
<circle cx="126.5" cy="306.5" r="0.5" fill="white"/>
<circle cx="155.5" cy="306.5" r="0.5" fill="white"/>
<circle cx="184.5" cy="306.5" r="0.5" fill="white"/>
<circle cx="287.5" cy="325.5" r="0.5" fill="white"/>
<circle cx="132.5" cy="25.5" r="0.5" fill="white"/>
<circle cx="161.5" cy="25.5" r="0.5" fill="white"/>
<circle cx="190.5" cy="25.5" r="0.5" fill="white"/>
<circle cx="219.5" cy="25.5" r="0.5" fill="white"/>
<circle cx="248.5" cy="25.5" r="0.5" fill="white"/>
<circle cx="277.5" cy="25.5" r="0.5" fill="white"/>
<circle cx="306.5" cy="25.5" r="0.5" fill="white"/>
<circle cx="99.5" cy="64.5" r="0.5" fill="white"/>
<circle cx="128.5" cy="64.5" r="0.5" fill="white"/>
<circle cx="157.5" cy="64.5" r="0.5" fill="white"/>
<circle cx="186.5" cy="64.5" r="0.5" fill="white"/>
<circle cx="215.5" cy="64.5" r="0.5" fill="white"/>
<circle cx="194.5" cy="103.5" r="0.5" fill="white"/>
<circle cx="223.5" cy="103.5" r="0.5" fill="white"/>
<circle cx="252.5" cy="103.5" r="0.5" fill="white"/>
<circle cx="281.5" cy="103.5" r="0.5" fill="white"/>
<circle cx="310.5" cy="103.5" r="0.5" fill="white"/>
<circle cx="225.5" cy="161.5" r="0.5" fill="white"/>
<circle cx="254.5" cy="161.5" r="0.5" fill="white"/>
<circle cx="283.5" cy="161.5" r="0.5" fill="white"/>
<circle cx="312.5" cy="161.5" r="0.5" fill="white"/>
<circle cx="132.5" cy="267.5" r="0.5" fill="white"/>
<circle cx="161.5" cy="267.5" r="0.5" fill="white"/>
<circle cx="190.5" cy="267.5" r="0.5" fill="white"/>
<circle cx="219.5" cy="267.5" r="0.5" fill="white"/>
<circle cx="248.5" cy="267.5" r="0.5" fill="white"/>
<circle cx="277.5" cy="267.5" r="0.5" fill="white"/>
<circle cx="306.5" cy="267.5" r="0.5" fill="white"/>
<circle cx="93.5" cy="327.5" r="0.5" fill="white"/>
<circle cx="122.5" cy="327.5" r="0.5" fill="white"/>
<circle cx="88.5" cy="52.5" r="0.5" fill="white"/>
<circle cx="117.5" cy="52.5" r="0.5" fill="white"/>
<circle cx="146.5" cy="52.5" r="0.5" fill="white"/>
<circle cx="127.5" cy="130.5" r="0.5" fill="white"/>
<circle cx="156.5" cy="130.5" r="0.5" fill="white"/>
<circle cx="185.5" cy="130.5" r="0.5" fill="white"/>
<circle cx="214.5" cy="130.5" r="0.5" fill="white"/>
<circle cx="243.5" cy="130.5" r="0.5" fill="white"/>
<circle cx="272.5" cy="130.5" r="0.5" fill="white"/>
<circle cx="301.5" cy="130.5" r="0.5" fill="white"/>
<circle cx="218.5" cy="190.5" r="0.5" fill="white"/>
<circle cx="247.5" cy="190.5" r="0.5" fill="white"/>
<circle cx="276.5" cy="190.5" r="0.5" fill="white"/>
<circle cx="305.5" cy="190.5" r="0.5" fill="white"/>
<circle cx="94.5" cy="296.5" r="0.5" fill="white"/>
<circle cx="123.5" cy="296.5" r="0.5" fill="white"/>
<circle cx="152.5" cy="296.5" r="0.5" fill="white"/>
<circle cx="181.5" cy="296.5" r="0.5" fill="white"/>
<circle cx="210.5" cy="296.5" r="0.5" fill="white"/>
<circle cx="239.5" cy="296.5" r="0.5" fill="white"/>
<circle cx="218.5" cy="335.5" r="0.5" fill="white"/>
<circle cx="247.5" cy="335.5" r="0.5" fill="white"/>
<circle cx="276.5" cy="335.5" r="0.5" fill="white"/>
<circle cx="120.5" cy="33.5" r="0.5" fill="white"/>
<circle cx="178.5" cy="31.5" r="0.5" fill="white"/>
<circle cx="236.5" cy="33.5" r="0.5" fill="white"/>
<circle cx="294.5" cy="35.5" r="0.5" fill="white"/>
<circle cx="143.5" cy="72.5" r="0.5" fill="white"/>
<circle cx="201.5" cy="70.5" r="0.5" fill="white"/>
<circle cx="259.5" cy="72.5" r="0.5" fill="white"/>
<circle cx="250.5" cy="111.5" r="0.5" fill="white"/>
<circle cx="308.5" cy="113.5" r="0.5" fill="white"/>
<circle cx="155.5" cy="188.5" r="0.5" fill="white"/>
<circle cx="213.5" cy="186.5" r="0.5" fill="white"/>
<circle cx="271.5" cy="188.5" r="0.5" fill="white"/>
<circle cx="329.5" cy="190.5" r="0.5" fill="white"/>
<circle cx="123.5" cy="260.5" r="0.5" fill="white"/>
<circle cx="181.5" cy="258.5" r="0.5" fill="white"/>
<circle cx="239.5" cy="260.5" r="0.5" fill="white"/>
<circle cx="297.5" cy="262.5" r="0.5" fill="white"/>
<circle cx="137.5" cy="302.5" r="0.5" fill="white"/>
<circle cx="195.5" cy="300.5" r="0.5" fill="white"/>
<circle cx="253.5" cy="302.5" r="0.5" fill="white"/>
<circle cx="302.5" cy="338.5" r="0.5" fill="white"/>
<circle cx="90.5" cy="340.5" r="0.5" fill="white"/>
<circle cx="119.5" cy="340.5" r="0.5" fill="white"/>
<circle cx="148.5" cy="340.5" r="0.5" fill="white"/>
<circle cx="177.5" cy="340.5" r="0.5" fill="white"/>
<circle cx="158.5" cy="342.5" r="0.5" fill="white"/>
<circle cx="187.5" cy="342.5" r="0.5" fill="white"/>
<circle cx="216.5" cy="342.5" r="0.5" fill="white"/>
<circle cx="245.5" cy="342.5" r="0.5" fill="white"/>
<circle cx="274.5" cy="342.5" r="0.5" fill="white"/>
<circle cx="274.5" cy="342.5" r="0.5" fill="white"/>
<circle cx="130.5" cy="336.5" r="0.5" fill="white"/>
<circle cx="188.5" cy="334.5" r="0.5" fill="white"/>
<circle cx="246.5" cy="336.5" r="0.5" fill="white"/>
<circle cx="124.5" cy="343.5" r="0.5" fill="white"/>
<circle cx="182.5" cy="341.5" r="0.5" fill="white"/>
<circle cx="240.5" cy="343.5" r="0.5" fill="white"/>
<circle r="0.5" transform="matrix(-1 0 0 1 299.5 354.5)" fill="white"/>
<circle r="0.5" transform="matrix(-1 0 0 1 241.5 356.5)" fill="white"/>
<circle r="0.5" transform="matrix(-1 0 0 1 183.5 354.5)" fill="white"/>
<circle r="0.5" transform="matrix(-1 0 0 1 125.5 352.5)" fill="white"/>
<circle r="0.5" transform="matrix(-1 0 0 1 215.5 372.5)" fill="white"/>
<circle r="0.5" transform="matrix(-1 0 0 1 186.5 372.5)" fill="white"/>
<circle r="0.5" transform="matrix(-1 0 0 1 157.5 372.5)" fill="white"/>
<circle r="0.5" transform="matrix(-1 0 0 1 128.5 372.5)" fill="white"/>
<circle r="0.5" transform="matrix(-1 0 0 1 99.5 372.5)" fill="white"/>
<circle r="0.5" transform="matrix(-1 0 0 1 262.5 370.5)" fill="white"/>
<circle r="0.5" transform="matrix(-1 0 0 1 204.5 368.5)" fill="white"/>
<circle r="0.5" transform="matrix(-1 0 0 1 146.5 366.5)" fill="white"/>
<circle r="0.5" transform="matrix(-1 0 0 1 88.5 368.5)" fill="white"/>
<circle r="0.5" transform="matrix(-1 0 0 1 268.5 377.5)" fill="white"/>
<circle r="0.5" transform="matrix(-1 0 0 1 210.5 375.5)" fill="white"/>
<circle r="0.5" transform="matrix(-1 0 0 1 152.5 373.5)" fill="white"/>
<circle r="0.5" transform="matrix(-1 0 0 1 94.5 375.5)" fill="white"/>
<circle cx="303.5" cy="48.5" r="0.5" fill="white"/>
<circle cx="332.5" cy="48.5" r="0.5" fill="white"/>
<circle cx="311.5" cy="87.5" r="0.5" fill="white"/>
<circle cx="340.5" cy="87.5" r="0.5" fill="white"/>
<circle cx="369.5" cy="87.5" r="0.5" fill="white"/>
<circle cx="398.5" cy="87.5" r="0.5" fill="white"/>
<circle cx="427.5" cy="87.5" r="0.5" fill="white"/>
<circle cx="456.5" cy="87.5" r="0.5" fill="white"/>
<circle cx="485.5" cy="87.5" r="0.5" fill="white"/>
<circle cx="342.5" cy="145.5" r="0.5" fill="white"/>
<circle cx="371.5" cy="145.5" r="0.5" fill="white"/>
<circle cx="400.5" cy="145.5" r="0.5" fill="white"/>
<circle cx="429.5" cy="145.5" r="0.5" fill="white"/>
<circle cx="458.5" cy="145.5" r="0.5" fill="white"/>
<circle cx="487.5" cy="145.5" r="0.5" fill="white"/>
<circle cx="516.5" cy="145.5" r="0.5" fill="white"/>
<circle cx="464.5" cy="230.5" r="0.5" fill="white"/>
<circle cx="493.5" cy="230.5" r="0.5" fill="white"/>
<circle cx="522.5" cy="230.5" r="0.5" fill="white"/>
<circle cx="551.5" cy="230.5" r="0.5" fill="white"/>
<circle cx="580.5" cy="230.5" r="0.5" fill="white"/>
<circle cx="307.5" cy="251.5" r="0.5" fill="white"/>
<circle cx="336.5" cy="251.5" r="0.5" fill="white"/>
<circle cx="365.5" cy="251.5" r="0.5" fill="white"/>
<circle cx="394.5" cy="251.5" r="0.5" fill="white"/>
<circle cx="423.5" cy="251.5" r="0.5" fill="white"/>
<circle cx="311.5" cy="292.5" r="0.5" fill="white"/>
<circle cx="340.5" cy="292.5" r="0.5" fill="white"/>
<circle cx="369.5" cy="292.5" r="0.5" fill="white"/>
<circle cx="398.5" cy="292.5" r="0.5" fill="white"/>
<circle cx="427.5" cy="292.5" r="0.5" fill="white"/>
<circle cx="456.5" cy="292.5" r="0.5" fill="white"/>
<circle cx="485.5" cy="292.5" r="0.5" fill="white"/>
<circle cx="342.5" cy="50.5" r="0.5" fill="white"/>
<circle cx="371.5" cy="50.5" r="0.5" fill="white"/>
<circle cx="400.5" cy="50.5" r="0.5" fill="white"/>
<circle cx="429.5" cy="50.5" r="0.5" fill="white"/>
<circle cx="458.5" cy="50.5" r="0.5" fill="white"/>
<circle cx="487.5" cy="50.5" r="0.5" fill="white"/>
<circle cx="516.5" cy="50.5" r="0.5" fill="white"/>
<circle cx="495.5" cy="89.5" r="0.5" fill="white"/>
<circle cx="524.5" cy="89.5" r="0.5" fill="white"/>
<circle cx="553.5" cy="89.5" r="0.5" fill="white"/>
<circle cx="582.5" cy="89.5" r="0.5" fill="white"/>
<circle cx="526.5" cy="147.5" r="0.5" fill="white"/>
<circle cx="555.5" cy="147.5" r="0.5" fill="white"/>
<circle cx="584.5" cy="147.5" r="0.5" fill="white"/>
<circle cx="404.5" cy="253.5" r="0.5" fill="white"/>
<circle cx="433.5" cy="253.5" r="0.5" fill="white"/>
<circle cx="462.5" cy="253.5" r="0.5" fill="white"/>
<circle cx="491.5" cy="253.5" r="0.5" fill="white"/>
<circle cx="520.5" cy="253.5" r="0.5" fill="white"/>
<circle cx="549.5" cy="253.5" r="0.5" fill="white"/>
<circle cx="578.5" cy="253.5" r="0.5" fill="white"/>
<circle cx="495.5" cy="294.5" r="0.5" fill="white"/>
<circle cx="524.5" cy="294.5" r="0.5" fill="white"/>
<circle cx="553.5" cy="294.5" r="0.5" fill="white"/>
<circle cx="553.5" cy="294.5" r="0.5" fill="white"/>
<circle cx="336.5" cy="313.5" r="0.5" fill="white"/>
<circle cx="365.5" cy="313.5" r="0.5" fill="white"/>
<circle cx="394.5" cy="313.5" r="0.5" fill="white"/>
<circle cx="423.5" cy="313.5" r="0.5" fill="white"/>
<circle cx="302.5" cy="38.5" r="0.5" fill="white"/>
<circle cx="331.5" cy="38.5" r="0.5" fill="white"/>
<circle cx="360.5" cy="38.5" r="0.5" fill="white"/>
<circle cx="389.5" cy="38.5" r="0.5" fill="white"/>
<circle cx="418.5" cy="38.5" r="0.5" fill="white"/>
<circle cx="428.5" cy="116.5" r="0.5" fill="white"/>
<circle cx="457.5" cy="116.5" r="0.5" fill="white"/>
<circle cx="486.5" cy="116.5" r="0.5" fill="white"/>
<circle cx="515.5" cy="116.5" r="0.5" fill="white"/>
<circle cx="544.5" cy="116.5" r="0.5" fill="white"/>
<circle cx="573.5" cy="116.5" r="0.5" fill="white"/>
<circle cx="490.5" cy="176.5" r="0.5" fill="white"/>
<circle cx="519.5" cy="176.5" r="0.5" fill="white"/>
<circle cx="548.5" cy="176.5" r="0.5" fill="white"/>
<circle cx="577.5" cy="176.5" r="0.5" fill="white"/>
<circle cx="296.5" cy="261.5" r="0.5" fill="white"/>
<circle cx="325.5" cy="261.5" r="0.5" fill="white"/>
<circle cx="366.5" cy="282.5" r="0.5" fill="white"/>
<circle cx="395.5" cy="282.5" r="0.5" fill="white"/>
<circle cx="424.5" cy="282.5" r="0.5" fill="white"/>
<circle cx="453.5" cy="282.5" r="0.5" fill="white"/>
<circle cx="482.5" cy="282.5" r="0.5" fill="white"/>
<circle cx="511.5" cy="282.5" r="0.5" fill="white"/>
<circle cx="540.5" cy="282.5" r="0.5" fill="white"/>
<circle cx="490.5" cy="321.5" r="0.5" fill="white"/>
<circle cx="519.5" cy="321.5" r="0.5" fill="white"/>
<circle cx="548.5" cy="321.5" r="0.5" fill="white"/>
<circle cx="326.5" cy="36.5" r="0.5" fill="white"/>
<circle cx="384.5" cy="38.5" r="0.5" fill="white"/>
<circle cx="442.5" cy="36.5" r="0.5" fill="white"/>
<circle cx="558.5" cy="36.5" r="0.5" fill="white"/>
<circle cx="607.5" cy="77.5" r="0.5" fill="white"/>
<circle cx="365.5" cy="116.5" r="0.5" fill="white"/>
<circle cx="423.5" cy="114.5" r="0.5" fill="white"/>
<circle cx="481.5" cy="112.5" r="0.5" fill="white"/>
<circle cx="539.5" cy="114.5" r="0.5" fill="white"/>
<circle cx="597.5" cy="116.5" r="0.5" fill="white"/>
<circle cx="396.5" cy="155.5" r="0.5" fill="white"/>
<circle cx="454.5" cy="153.5" r="0.5" fill="white"/>
<circle cx="512.5" cy="151.5" r="0.5" fill="white"/>
<circle cx="570.5" cy="153.5" r="0.5" fill="white"/>
<circle cx="301.5" cy="192.5" r="0.5" fill="white"/>
<circle cx="476.5" cy="190.5" r="0.5" fill="white"/>
<circle cx="534.5" cy="192.5" r="0.5" fill="white"/>
<circle cx="592.5" cy="193.5" r="0.5" fill="white"/>
<circle cx="306.5" cy="225.5" r="0.5" fill="white"/>
<circle cx="364.5" cy="227.5" r="0.5" fill="white"/>
<circle cx="422.5" cy="225.5" r="0.5" fill="white"/>
<circle cx="480.5" cy="223.5" r="0.5" fill="white"/>
<circle cx="538.5" cy="225.5" r="0.5" fill="white"/>
<circle cx="596.5" cy="227.5" r="0.5" fill="white"/>
<circle cx="307.5" cy="308.5" r="0.5" fill="white"/>
<circle cx="365.5" cy="310.5" r="0.5" fill="white"/>
<circle cx="423.5" cy="308.5" r="0.5" fill="white"/>
<circle cx="481.5" cy="306.5" r="0.5" fill="white"/>
<circle cx="567.5" cy="301.5" r="0.5" fill="white"/>
<circle cx="334.5" cy="21.5" r="0.5" fill="white"/>
<circle cx="392.5" cy="19.5" r="0.5" fill="white"/>
<circle cx="450.5" cy="17.5" r="0.5" fill="white"/>
<circle cx="508.5" cy="19.5" r="0.5" fill="white"/>
<circle cx="566.5" cy="21.5" r="0.5" fill="white"/>
<circle cx="299.5" cy="58.5" r="0.5" fill="white"/>
<circle cx="357.5" cy="60.5" r="0.5" fill="white"/>
<circle cx="415.5" cy="58.5" r="0.5" fill="white"/>
<circle cx="473.5" cy="56.5" r="0.5" fill="white"/>
<circle cx="531.5" cy="58.5" r="0.5" fill="white"/>
<circle cx="589.5" cy="60.5" r="0.5" fill="white"/>
<circle cx="289.5" cy="97.5" r="0.5" fill="white"/>
<circle cx="347.5" cy="99.5" r="0.5" fill="white"/>
<circle cx="405.5" cy="97.5" r="0.5" fill="white"/>
<circle cx="580.5" cy="99.5" r="0.5" fill="white"/>
<circle cx="454.5" cy="134.5" r="0.5" fill="white"/>
<circle cx="427.5" cy="174.5" r="0.5" fill="white"/>
<circle cx="485.5" cy="172.5" r="0.5" fill="white"/>
<circle cx="543.5" cy="174.5" r="0.5" fill="white"/>
<circle cx="601.5" cy="176.5" r="0.5" fill="white"/>
<circle cx="274.5" cy="213.5" r="0.5" fill="white"/>
<circle cx="507.5" cy="213.5" r="0.5" fill="white"/>
<circle cx="279.5" cy="246.5" r="0.5" fill="white"/>
<circle cx="337.5" cy="248.5" r="0.5" fill="white"/>
<circle cx="395.5" cy="246.5" r="0.5" fill="white"/>
<circle cx="511.5" cy="246.5" r="0.5" fill="white"/>
<circle cx="569.5" cy="248.5" r="0.5" fill="white"/>
<circle cx="293.5" cy="288.5" r="0.5" fill="white"/>
<circle cx="351.5" cy="290.5" r="0.5" fill="white"/>
<circle cx="409.5" cy="288.5" r="0.5" fill="white"/>
<circle cx="467.5" cy="286.5" r="0.5" fill="white"/>
<circle cx="525.5" cy="288.5" r="0.5" fill="white"/>
<circle cx="574.5" cy="324.5" r="0.5" fill="white"/>
<circle cx="304.5" cy="326.5" r="0.5" fill="white"/>
<circle cx="333.5" cy="326.5" r="0.5" fill="white"/>
<circle cx="362.5" cy="326.5" r="0.5" fill="white"/>
<circle cx="391.5" cy="326.5" r="0.5" fill="white"/>
<circle cx="420.5" cy="326.5" r="0.5" fill="white"/>
<circle cx="449.5" cy="326.5" r="0.5" fill="white"/>
<circle cx="478.5" cy="326.5" r="0.5" fill="white"/>
<circle cx="459.5" cy="328.5" r="0.5" fill="white"/>
<circle cx="488.5" cy="328.5" r="0.5" fill="white"/>
<circle cx="517.5" cy="328.5" r="0.5" fill="white"/>
<circle cx="546.5" cy="328.5" r="0.5" fill="white"/>
<circle cx="546.5" cy="328.5" r="0.5" fill="white"/>
<circle cx="344.5" cy="324.5" r="0.5" fill="white"/>
<circle cx="402.5" cy="322.5" r="0.5" fill="white"/>
<circle cx="460.5" cy="320.5" r="0.5" fill="white"/>
<circle cx="518.5" cy="322.5" r="0.5" fill="white"/>
<circle cx="583.5" cy="290.5" r="0.5" fill="white"/>
<circle cx="280.5" cy="329.5" r="0.5" fill="white"/>
<circle cx="338.5" cy="331.5" r="0.5" fill="white"/>
<circle cx="396.5" cy="329.5" r="0.5" fill="white"/>
<circle cx="454.5" cy="327.5" r="0.5" fill="white"/>
<circle cx="512.5" cy="329.5" r="0.5" fill="white"/>
<circle r="0.5" transform="matrix(-1 0 0 1 571.5 340.5)" fill="white"/>
<circle r="0.5" transform="matrix(-1 0 0 1 513.5 342.5)" fill="white"/>
<circle r="0.5" transform="matrix(-1 0 0 1 455.5 340.5)" fill="white"/>
<circle r="0.5" transform="matrix(-1 0 0 1 397.5 338.5)" fill="white"/>
<circle r="0.5" transform="matrix(-1 0 0 1 339.5 340.5)" fill="white"/>
<circle r="0.5" transform="matrix(-1 0 0 1 304.5 356.5)" fill="white"/>
<circle r="0.5" transform="matrix(-1 0 0 1 516.5 358.5)" fill="white"/>
<circle r="0.5" transform="matrix(-1 0 0 1 487.5 358.5)" fill="white"/>
<circle r="0.5" transform="matrix(-1 0 0 1 458.5 358.5)" fill="white"/>
<circle r="0.5" transform="matrix(-1 0 0 1 429.5 358.5)" fill="white"/>
<circle r="0.5" transform="matrix(-1 0 0 1 400.5 358.5)" fill="white"/>
<circle r="0.5" transform="matrix(-1 0 0 1 371.5 358.5)" fill="white"/>
<circle r="0.5" transform="matrix(-1 0 0 1 342.5 358.5)" fill="white"/>
<circle r="0.5" transform="matrix(-1 0 0 1 342.5 358.5)" fill="white"/>
<circle r="0.5" transform="matrix(-1 0 0 1 361.5 360.5)" fill="white"/>
<circle r="0.5" transform="matrix(-1 0 0 1 332.5 360.5)" fill="white"/>
<circle r="0.5" transform="matrix(-1 0 0 1 332.5 360.5)" fill="white"/>
<circle r="0.5" transform="matrix(-1 0 0 1 534.5 356.5)" fill="white"/>
<circle r="0.5" transform="matrix(-1 0 0 1 476.5 354.5)" fill="white"/>
<circle r="0.5" transform="matrix(-1 0 0 1 418.5 352.5)" fill="white"/>
<circle r="0.5" transform="matrix(-1 0 0 1 360.5 354.5)" fill="white"/>
<circle r="0.5" transform="matrix(-1 0 0 1 540.5 363.5)" fill="white"/>
<circle r="0.5" transform="matrix(-1 0 0 1 482.5 361.5)" fill="white"/>
<circle r="0.5" transform="matrix(-1 0 0 1 366.5 361.5)" fill="white"/>
<circle r="0.5" transform="matrix(-1 0 0 1 308.5 363.5)" fill="white"/>
</g>
<defs>
<filter id="filter0_f_1242_4730" x="390.975" y="-334.922" width="729.928" height="729.928" filterUnits="userSpaceOnUse" color-interpolation-filters="sRGB">
<feFlood flood-opacity="0" result="BackgroundImageFix"/>
<feBlend mode="normal" in="SourceGraphic" in2="BackgroundImageFix" result="shape"/>
<feGaussianBlur stdDeviation="96.0938" result="effect1_foregroundBlur_1242_4730"/>
</filter>
<filter id="filter1_f_1242_4730" x="-186.356" y="-336.075" width="729.928" height="729.928" filterUnits="userSpaceOnUse" color-interpolation-filters="sRGB">
<feFlood flood-opacity="0" result="BackgroundImageFix"/>
<feBlend mode="normal" in="SourceGraphic" in2="BackgroundImageFix" result="shape"/>
<feGaussianBlur stdDeviation="96.0938" result="effect1_foregroundBlur_1242_4730"/>
</filter>
<filter id="filter2_f_1242_4730" x="103.078" y="1.02185" width="729.928" height="729.928" filterUnits="userSpaceOnUse" color-interpolation-filters="sRGB">
<feFlood flood-opacity="0" result="BackgroundImageFix"/>
<feBlend mode="normal" in="SourceGraphic" in2="BackgroundImageFix" result="shape"/>
<feGaussianBlur stdDeviation="96.0938" result="effect1_foregroundBlur_1242_4730"/>
</filter>
<filter id="filter3_f_1242_4730" x="-26.0723" y="-131.203" width="729.928" height="729.928" filterUnits="userSpaceOnUse" color-interpolation-filters="sRGB">
<feFlood flood-opacity="0" result="BackgroundImageFix"/>
<feBlend mode="normal" in="SourceGraphic" in2="BackgroundImageFix" result="shape"/>
<feGaussianBlur stdDeviation="96.0938" result="effect1_foregroundBlur_1242_4730"/>
</filter>
<filter id="filter4_f_1242_4730" x="-145.63" y="-99.3153" width="1012" height="688.962" filterUnits="userSpaceOnUse" color-interpolation-filters="sRGB">
<feFlood flood-opacity="0" result="BackgroundImageFix"/>
<feBlend mode="normal" in="SourceGraphic" in2="BackgroundImageFix" result="shape"/>
<feGaussianBlur stdDeviation="90.3235" result="effect1_foregroundBlur_1242_4730"/>
</filter>
<filter id="filter5_f_1242_4730" x="-296.984" y="-555.066" width="1314.65" height="1274.57" filterUnits="userSpaceOnUse" color-interpolation-filters="sRGB">
<feFlood flood-opacity="0" result="BackgroundImageFix"/>
<feBlend mode="normal" in="SourceGraphic" in2="BackgroundImageFix" result="shape"/>
<feGaussianBlur stdDeviation="207.5" result="effect1_foregroundBlur_1242_4730"/>
</filter>
<filter id="filter6_f_1242_4730" x="-248.16" y="-218.542" width="1216.17" height="1184.24" filterUnits="userSpaceOnUse" color-interpolation-filters="sRGB">
<feFlood flood-opacity="0" result="BackgroundImageFix"/>
<feBlend mode="normal" in="SourceGraphic" in2="BackgroundImageFix" result="shape"/>
<feGaussianBlur stdDeviation="207.5" result="effect1_foregroundBlur_1242_4730"/>
</filter>
<filter id="filter7_f_1242_4730" x="-33.3354" y="-354.073" width="787.52" height="796.42" filterUnits="userSpaceOnUse" color-interpolation-filters="sRGB">
<feFlood flood-opacity="0" result="BackgroundImageFix"/>
<feBlend mode="normal" in="SourceGraphic" in2="BackgroundImageFix" result="shape"/>
<feGaussianBlur stdDeviation="122.059" result="effect1_foregroundBlur_1242_4730"/>
</filter>
<filter id="filter8_f_1242_4730" x="-296.984" y="-308.872" width="1314.65" height="1274.57" filterUnits="userSpaceOnUse" color-interpolation-filters="sRGB">
<feFlood flood-opacity="0" result="BackgroundImageFix"/>
<feBlend mode="normal" in="SourceGraphic" in2="BackgroundImageFix" result="shape"/>
<feGaussianBlur stdDeviation="207.5" result="effect1_foregroundBlur_1242_4730"/>
</filter>
<filter id="filter9_f_1242_4730" x="-379.983" y="-684.362" width="1480.7" height="1426.89" filterUnits="userSpaceOnUse" color-interpolation-filters="sRGB">
<feFlood flood-opacity="0" result="BackgroundImageFix"/>
<feBlend mode="normal" in="SourceGraphic" in2="BackgroundImageFix" result="shape"/>
<feGaussianBlur stdDeviation="207.5" result="effect1_foregroundBlur_1242_4730"/>
</filter>
<filter id="filter10_f_1242_4730" x="13.0479" y="-700.91" width="1442.74" height="1392.06" filterUnits="userSpaceOnUse" color-interpolation-filters="sRGB">
<feFlood flood-opacity="0" result="BackgroundImageFix"/>
<feBlend mode="normal" in="SourceGraphic" in2="BackgroundImageFix" result="shape"/>
<feGaussianBlur stdDeviation="207.5" result="effect1_foregroundBlur_1242_4730"/>
</filter>
<filter id="filter11_f_1242_4730" x="71.6338" y="-302.318" width="1347.53" height="1304.73" filterUnits="userSpaceOnUse" color-interpolation-filters="sRGB">
<feFlood flood-opacity="0" result="BackgroundImageFix"/>
<feBlend mode="normal" in="SourceGraphic" in2="BackgroundImageFix" result="shape"/>
<feGaussianBlur stdDeviation="207.5" result="effect1_foregroundBlur_1242_4730"/>
</filter>
<filter id="filter12_f_1242_4730" x="-614.336" y="-389.65" width="1442.74" height="1392.06" filterUnits="userSpaceOnUse" color-interpolation-filters="sRGB">
<feFlood flood-opacity="0" result="BackgroundImageFix"/>
<feBlend mode="normal" in="SourceGraphic" in2="BackgroundImageFix" result="shape"/>
<feGaussianBlur stdDeviation="207.5" result="effect1_foregroundBlur_1242_4730"/>
</filter>
<filter id="filter13_f_1242_4730" x="-638.746" y="-864.377" width="1652.68" height="1584.64" filterUnits="userSpaceOnUse" color-interpolation-filters="sRGB">
<feFlood flood-opacity="0" result="BackgroundImageFix"/>
<feBlend mode="normal" in="SourceGraphic" in2="BackgroundImageFix" result="shape"/>
<feGaussianBlur stdDeviation="207.5" result="effect1_foregroundBlur_1242_4730"/>
</filter>
<filter id="filter14_f_1242_4730" x="232.612" y="-232.678" width="729.928" height="729.928" filterUnits="userSpaceOnUse" color-interpolation-filters="sRGB">
<feFlood flood-opacity="0" result="BackgroundImageFix"/>
<feBlend mode="normal" in="SourceGraphic" in2="BackgroundImageFix" result="shape"/>
<feGaussianBlur stdDeviation="96.0938" result="effect1_foregroundBlur_1242_4730"/>
</filter>
<clipPath id="clip0_1242_4730">
<rect width="405" height="720" fill="white" transform="matrix(0 -1 -1 0 720 405)"/>
</clipPath>
</defs>
</svg>
