<svg width="14" height="14" viewBox="0 0 14 14" fill="none" xmlns="http://www.w3.org/2000/svg">
<path d="M1.47715 5.935C0.864222 5.935 0.374304 5.43858 0.392452 4.84409C0.42186 3.88076 0.499564 3.27556 0.684696 2.7782C1.0249 1.86422 1.50088 1.31635 2.22502 0.910451C2.86412 0.552226 3.83165 0.375 5.70395 0.375H8.29605C10.1683 0.375 11.1359 0.552226 11.775 0.910451C12.4991 1.31635 12.9751 1.86422 13.3153 2.7782C13.5004 3.27556 13.5781 3.88075 13.6075 4.84408C13.6257 5.43857 13.1358 5.935 12.5228 5.935C11.8654 5.935 11.4558 6.55849 11.4558 7.15921C11.4558 7.75994 11.8654 8.38343 12.5228 8.38343C13.1366 8.38343 13.6228 8.88043 13.5958 9.46703C13.5594 10.2549 13.4792 10.7816 13.3153 11.2218C12.9751 12.1358 12.4991 12.6837 11.775 13.0895C11.1359 13.4478 10.1683 13.625 8.29605 13.625H5.70395C3.83165 13.625 2.86412 13.4478 2.22502 13.0895C1.50088 12.6837 1.0249 12.1358 0.684696 11.2218L0.333253 11.3526L0.684696 11.2218C0.52084 10.7816 0.440605 10.2549 0.404239 9.46702C0.377163 8.88043 0.863362 8.38343 1.47715 8.38343C2.13455 8.38343 2.54418 7.75994 2.54418 7.15921C2.54418 6.55849 2.13455 5.935 1.47715 5.935Z" stroke="white" stroke-width="0.75"/>
<path d="M6.52444 4.38021C6.67412 3.91956 7.32582 3.91955 7.4755 4.38021L7.80448 5.39271C7.87142 5.59872 8.06339 5.7382 8.28001 5.7382H9.34461C9.82897 5.7382 10.0304 6.35801 9.63851 6.64271L8.77722 7.26847C8.60198 7.39579 8.52865 7.62147 8.59559 7.82748L8.92457 8.83998C9.07424 9.30064 8.547 9.6837 8.15515 9.399L7.29386 8.77324C7.11862 8.64592 6.88132 8.64592 6.70608 8.77324L5.84479 9.399C5.45293 9.6837 4.92569 9.30064 5.07537 8.83998L5.40435 7.82749C5.47129 7.62147 5.39796 7.39579 5.22271 7.26847L4.36143 6.64271C3.96957 6.35801 4.17096 5.7382 4.65532 5.7382H5.71993C5.93654 5.7382 6.12852 5.59872 6.19546 5.39271L6.52444 4.38021Z" stroke="white" stroke-width="0.75" stroke-linecap="round" stroke-linejoin="round"/>
</svg>
