<svg width="527" height="135" viewBox="0 0 527 135" fill="none" xmlns="http://www.w3.org/2000/svg">
<rect y="0.580322" width="141.494" height="134.42" rx="37.6506" fill="#FCD436"/>
<path d="M52.1859 100.448V88.0472H66.6824V62.3726L52.1859 69.3589V53.9891L89.4752 36.0867V100.448H52.1859Z" fill="white"/>
<path d="M212.247 103.373C206.082 103.373 200.857 101.964 196.571 99.1458C192.286 96.2691 189.057 92.453 186.884 87.6975C184.771 82.8833 183.714 77.5702 183.714 71.7579C183.714 65.9457 184.8 60.6032 186.972 55.7303C189.145 50.8574 192.374 46.9826 196.659 44.1058C200.945 41.1704 206.141 39.7026 212.247 39.7026C218.235 39.7026 223.343 41.141 227.57 44.0178C231.856 46.8945 235.055 50.7987 237.169 55.7303C239.341 60.6032 240.427 65.9751 240.427 71.846C240.427 77.7169 239.341 83.0595 237.169 87.8736C235.055 92.6291 231.856 96.4158 227.57 99.2339C223.343 101.993 218.235 103.373 212.247 103.373ZM212.159 91.132C216.503 91.132 219.85 89.2827 222.198 85.584C224.605 81.8853 225.809 77.2472 225.809 71.6699C225.809 66.1512 224.634 61.4838 222.286 57.6677C219.938 53.8516 216.562 51.9435 212.159 51.9435C209.165 51.9435 206.611 52.8535 204.497 54.6735C202.442 56.4935 200.887 58.9006 199.83 61.8948C198.832 64.8889 198.333 68.1473 198.333 71.6699C198.333 77.1298 199.507 81.7385 201.855 85.4959C204.262 89.2533 207.697 91.132 212.159 91.132ZM248.589 55.9945H262.327V62.7754H263.031C264.03 60.6032 265.644 58.7832 267.875 57.3154C270.165 55.789 272.924 55.0258 276.153 55.0258C282.259 55.0258 286.486 56.9632 288.834 60.838C291.183 64.6541 292.357 68.9399 292.357 73.6953V102.58H278.619V76.0731C278.619 73.0202 277.944 70.6131 276.593 68.8518C275.243 67.0905 273.247 66.2099 270.605 66.2099C267.787 66.2099 265.703 67.1492 264.352 69.0279C263.002 70.8479 262.327 73.1963 262.327 76.0731V102.58H248.589V55.9945ZM322.354 103.373C317.423 103.373 313.254 102.257 309.849 100.026C306.503 97.7368 304.008 94.772 302.364 91.132C300.779 87.4333 299.986 83.4704 299.986 79.2434C299.986 75.0163 300.779 71.0828 302.364 67.4428C304.008 63.7441 306.503 60.7499 309.849 58.4603C313.254 56.1706 317.481 55.0258 322.53 55.0258C329.106 55.0258 334.331 57.11 338.206 61.2783C342.081 65.388 344.018 71.3763 344.018 79.2434V83.0301H313.196V83.7346C313.196 86.1417 314.018 88.2259 315.661 89.9872C317.364 91.6897 319.507 92.541 322.09 92.541C324.086 92.541 325.789 92.1007 327.198 91.2201C328.607 90.2807 329.605 89.0478 330.192 87.5214H343.666C342.492 92.1594 340.055 95.9755 336.356 98.9697C332.716 101.905 328.049 103.373 322.354 103.373ZM330.896 74.2237C330.838 71.0534 330.016 68.705 328.431 67.1786C326.904 65.6522 324.849 64.8889 322.266 64.8889C319.624 64.8889 317.511 65.7109 315.926 67.3547C314.399 68.9986 313.607 71.2883 313.548 74.2237H330.896ZM372.171 40.8475H396.477C401.937 40.8475 406.751 42.0804 410.919 44.5462C415.087 46.9532 418.316 50.4758 420.606 55.1138C422.955 59.6932 424.129 65.1825 424.129 71.5818C424.129 78.0985 422.955 83.6759 420.606 88.314C418.258 92.952 414.97 96.4746 410.743 98.8816C406.575 101.289 401.76 102.492 396.301 102.492H372.171V40.8475ZM393.747 90.1633C398.561 90.1633 402.377 88.7836 405.195 86.0243C408.013 83.265 409.422 78.4508 409.422 71.5818C409.422 64.7128 408.013 59.8986 405.195 57.1393C402.436 54.38 398.62 53.0003 393.747 53.0003H385.469V90.1633H393.747ZM452.816 103.373C447.885 103.373 443.716 102.257 440.311 100.026C436.965 97.7368 434.47 94.772 432.826 91.132C431.241 87.4333 430.448 83.4704 430.448 79.2434C430.448 75.0163 431.241 71.0828 432.826 67.4428C434.47 63.7441 436.965 60.7499 440.311 58.4603C443.716 56.1706 447.943 55.0258 452.992 55.0258C459.568 55.0258 464.793 57.11 468.668 61.2783C472.543 65.388 474.48 71.3763 474.48 79.2434V83.0301H443.658V83.7346C443.658 86.1417 444.48 88.2259 446.123 89.9872C447.826 91.6897 449.969 92.541 452.552 92.541C454.548 92.541 456.251 92.1007 457.66 91.2201C459.069 90.2807 460.067 89.0478 460.654 87.5214H474.128C472.954 92.1594 470.517 95.9755 466.818 98.9697C463.178 101.905 458.511 103.373 452.816 103.373ZM461.358 74.2237C461.3 71.0534 460.478 68.705 458.893 67.1786C457.366 65.6522 455.311 64.8889 452.728 64.8889C450.086 64.8889 447.973 65.7109 446.388 67.3547C444.861 68.9986 444.069 71.2883 444.01 74.2237H461.358ZM491.633 79.3314L477.807 55.9945H492.778L500.528 71.0534H500.88L508.806 55.9945H523.689L509.51 79.3314L523.6 102.58H508.718L500.88 87.5214H500.528L492.778 102.58H477.807L491.633 79.3314Z" fill="#FCD436"/>
</svg>
