<svg width="25" height="25" viewBox="0 0 25 25" fill="none" xmlns="http://www.w3.org/2000/svg">
<g clip-path="url(#clip0_652_2059)">
<path d="M8.38089 22.684C17.4375 22.684 22.3911 15.1807 22.3911 8.67381C22.3911 8.46069 22.3911 8.24853 22.3767 8.03733C23.3404 7.34028 24.1723 6.47721 24.8334 5.48853C23.9348 5.88693 22.9814 6.14808 22.0052 6.26325C23.0332 5.64794 23.8025 4.68003 24.17 3.53973C23.2035 4.11334 22.146 4.51756 21.0433 4.73493C20.3009 3.94551 19.319 3.42277 18.2496 3.24761C17.1801 3.07246 16.0828 3.25464 15.1273 3.76598C14.1719 4.27732 13.4116 5.0893 12.9641 6.07628C12.5166 7.06325 12.4069 8.17019 12.6519 9.22581C10.6943 9.12761 8.77913 8.61884 7.03083 7.73253C5.28253 6.84623 3.74014 5.60219 2.50377 4.08117C1.8741 5.16516 1.68125 6.4484 1.96447 7.66959C2.2477 8.89079 2.98572 9.95812 4.02825 10.6543C3.24461 10.6313 2.47802 10.4199 1.79337 10.038V10.1004C1.79369 11.2372 2.18723 12.339 2.90724 13.2187C3.62726 14.0985 4.62944 14.7021 5.74377 14.9272C5.01885 15.125 4.25825 15.1539 3.52041 15.0117C3.83519 15.9901 4.4478 16.8456 5.27261 17.4587C6.09742 18.0718 7.0932 18.4118 8.12073 18.4313C7.09981 19.2337 5.93069 19.827 4.68025 20.1772C3.42981 20.5275 2.12259 20.6277 0.833374 20.4722C3.08521 21.9172 5.7053 22.6837 8.38089 22.6802" fill="#9CA3AF"/>
</g>
<defs>
<clipPath id="clip0_652_2059">
<rect width="24" height="24" fill="white" transform="translate(0.833374 0.933319)"/>
</clipPath>
</defs>
</svg>
