<svg width="7" height="10" viewBox="0 0 7 10" fill="none" xmlns="http://www.w3.org/2000/svg">
<path fill-rule="evenodd" clip-rule="evenodd" d="M0.861766 3.80478C1.12212 4.06513 1.54423 4.06513 1.80458 3.80478L3.6665 1.94285L5.52843 3.80478C5.78878 4.06513 6.21089 4.06513 6.47124 3.80478C6.73159 3.54443 6.73159 3.12232 6.47124 2.86197L4.13791 0.528636C3.87756 0.268286 3.45545 0.268287 3.1951 0.528636L0.861766 2.86197C0.601417 3.12232 0.601417 3.54443 0.861766 3.80478Z" fill="#777E91"/>
<path fill-rule="evenodd" clip-rule="evenodd" d="M0.861766 6.19522C1.12212 5.93487 1.54423 5.93487 1.80458 6.19522L3.6665 8.05715L5.52843 6.19522C5.78878 5.93487 6.21089 5.93487 6.47124 6.19522C6.73159 6.45557 6.73159 6.87768 6.47124 7.13803L4.13791 9.47136C3.87756 9.73171 3.45545 9.73171 3.1951 9.47136L0.861766 7.13803C0.601417 6.87768 0.601417 6.45557 0.861766 6.19522Z" fill="#777E91"/>
</svg>
