<svg width="12" height="16" viewBox="0 0 12 16" fill="none" xmlns="http://www.w3.org/2000/svg">
<path d="M8.02208 15.8327L11.8403 11.8326C12.0533 11.6094 12.0532 11.2476 11.8402 11.0245C11.7379 10.9174 11.5993 10.8572 11.4546 10.8572L9.81826 10.8572L9.81826 6.85712C9.81826 6.54151 9.57405 6.28567 9.27279 6.28567C8.97153 6.28567 8.72732 6.54151 8.72732 6.85712L8.72732 11.4286C8.72732 11.7442 8.97153 12.0001 9.27279 12.0001L10.1379 12.0001L7.63644 14.6207L5.13496 12.0001L6.00007 12.0001C6.30133 12.0001 6.54554 11.7442 6.54554 11.4286L6.54554 5.14281L8.18191 5.14281C8.48317 5.14274 8.72732 4.88683 8.72726 4.57126C8.72722 4.41978 8.66979 4.2745 8.56755 4.16736L4.74933 0.167321C4.53631 -0.055774 4.19104 -0.055774 3.97806 0.167321L0.159836 4.16739C0.0575302 4.27453 3.41391e-05 4.41985 2.6612e-06 4.57139C-0.000221456 4.64649 0.0138729 4.72092 0.0414551 4.79023C0.125958 5.00372 0.324848 5.14287 0.545471 5.14281L2.18185 5.14281L2.18185 9.14287C2.18185 9.45848 2.42606 9.71432 2.72732 9.71432C3.02858 9.71432 3.27279 9.45848 3.27279 9.14287L3.27279 4.57139C3.27279 4.25578 3.02858 3.99994 2.72732 3.99994L1.86221 3.99994L4.36369 1.37932L6.86518 3.99994L6.00007 3.99994C5.69881 3.99994 5.4546 4.25578 5.4546 4.57139L5.4546 10.8572L3.81822 10.8572C3.51696 10.8573 3.27282 11.1132 3.27288 11.4287C3.27291 11.5802 3.33035 11.7255 3.43259 11.8326L7.25081 15.8327C7.46383 16.0558 7.80909 16.0558 8.02208 15.8327Z" fill="white"/>
</svg>
