<svg width="16" height="16" viewBox="0 0 16 16" fill="none" xmlns="http://www.w3.org/2000/svg">
<path fill-rule="evenodd" clip-rule="evenodd" d="M1.57949 4.36127C1.77291 2.89674 2.89686 1.77279 4.36139 1.57937C5.36822 1.4464 6.62768 1.33337 8.00016 1.33337C9.37265 1.33337 10.6321 1.4464 11.6389 1.57937C13.1035 1.77279 14.2274 2.89674 14.4208 4.36127C14.5538 5.3681 14.6668 6.62756 14.6668 8.00004C14.6668 9.37253 14.5538 10.632 14.4208 11.6388C14.2274 13.1033 13.1035 14.2273 11.6389 14.4207C10.6321 14.5537 9.37265 14.6667 8.00016 14.6667C6.62768 14.6667 5.36822 14.5537 4.36139 14.4207C2.89686 14.2273 1.77291 13.1033 1.57949 11.6388C1.44652 10.632 1.3335 9.37252 1.3335 8.00004C1.3335 6.62756 1.44652 5.3681 1.57949 4.36127ZM6.47157 5.52864C6.21122 5.26829 5.78911 5.26829 5.52876 5.52864C5.26841 5.78899 5.26841 6.2111 5.52876 6.47145L7.05735 8.00004L5.52876 9.52864C5.26841 9.78899 5.26841 10.2111 5.52876 10.4714C5.78911 10.7318 6.21122 10.7318 6.47157 10.4714L8.00016 8.94285L9.52876 10.4714C9.78911 10.7318 10.2112 10.7318 10.4716 10.4714C10.7319 10.2111 10.7319 9.78899 10.4716 9.52864L8.94297 8.00004L10.4716 6.47145C10.7319 6.2111 10.7319 5.78899 10.4716 5.52864C10.2112 5.26829 9.78911 5.26829 9.52876 5.52864L8.00016 7.05723L6.47157 5.52864Z" fill="#FF7A68"/>
</svg>
