<svg width="24" height="24" viewBox="0 0 24 24" fill="none" xmlns="http://www.w3.org/2000/svg">
<rect x="3" y="21" width="18" height="2" rx="1" fill="url(#paint0_linear_1099_4675)"/>
<path fill-rule="evenodd" clip-rule="evenodd" d="M4.08576 11.5L3.58579 11.9999C3.21071 12.375 3 12.8837 3 13.4142V16.9999C3 18.1045 3.89543 18.9999 5 18.9999H8.58579C9.11622 18.9999 9.62493 18.7892 10 18.4142L10.5 17.9142L4.08576 11.5Z" fill="url(#paint1_linear_1099_4675)"/>
<path fill-rule="evenodd" clip-rule="evenodd" d="M5.5 10.0858L11.5858 4L18 10.4142L11.9142 16.5L5.5 10.0858Z" fill="url(#paint2_linear_1099_4675)"/>
<path fill-rule="evenodd" clip-rule="evenodd" d="M18.1214 1.70705C16.9498 0.535476 15.0503 0.535476 13.8787 1.70705L13 2.58576L19.4142 8.99997L20.2929 8.12126C21.4645 6.94969 21.4645 5.0502 20.2929 3.87862L18.1214 1.70705Z" fill="url(#paint3_linear_1099_4675)"/>
<defs>
<linearGradient id="paint0_linear_1099_4675" x1="12" y1="21" x2="12" y2="23" gradientUnits="userSpaceOnUse">
<stop stop-color="#7DAD54"/>
<stop offset="1" stop-color="#85BA22"/>
</linearGradient>
<linearGradient id="paint1_linear_1099_4675" x1="6.74999" y1="11.5" x2="6.74999" y2="18.9999" gradientUnits="userSpaceOnUse">
<stop stop-color="#7DAD54"/>
<stop offset="1" stop-color="#85BA22"/>
</linearGradient>
<linearGradient id="paint2_linear_1099_4675" x1="11.75" y1="4" x2="11.75" y2="16.5" gradientUnits="userSpaceOnUse">
<stop stop-color="#7DAD54"/>
<stop offset="1" stop-color="#85BA22"/>
</linearGradient>
<linearGradient id="paint3_linear_1099_4675" x1="17.0858" y1="0.828369" x2="17.0858" y2="8.99997" gradientUnits="userSpaceOnUse">
<stop stop-color="#7DAD54"/>
<stop offset="1" stop-color="#85BA22"/>
</linearGradient>
</defs>
</svg>
