<svg width="25" height="25" viewBox="0 0 25 25" fill="none" xmlns="http://www.w3.org/2000/svg">
<path fill-rule="evenodd" clip-rule="evenodd" d="M3.27701 11.6822C8.91415 9.14199 12.6731 7.46732 14.5539 6.65821C19.924 4.34802 21.0399 3.94671 21.7672 3.93346C21.9271 3.93055 22.2848 3.97155 22.5165 4.16599C22.7121 4.33017 22.7659 4.55195 22.7917 4.70761C22.8175 4.86327 22.8495 5.21787 22.824 5.49495C22.533 8.65742 21.2738 16.3319 20.6332 19.8739C20.3622 21.3727 19.8285 21.8752 19.3117 21.9244C18.1888 22.0313 17.3361 21.1568 16.2485 20.4195C14.5466 19.2656 13.5851 18.5473 11.9331 17.4213C10.0239 16.1201 11.2616 15.4049 12.3496 14.2361C12.6343 13.9302 17.582 9.27558 17.6778 8.85333C17.6898 8.80053 17.7009 8.60368 17.5878 8.49974C17.4747 8.39579 17.3079 8.43134 17.1874 8.45961C17.0168 8.49968 14.2979 10.3583 9.03098 14.0356C8.25925 14.5837 7.56025 14.8507 6.93396 14.8367C6.24353 14.8213 4.91541 14.433 3.9281 14.101C2.71712 13.6939 1.75465 13.4786 1.83846 12.7872C1.88211 12.427 2.36163 12.0587 3.27701 11.6822Z" fill="#9CA3AF"/>
</svg>
