<svg width="25" height="25" viewBox="0 0 25 25" fill="none" xmlns="http://www.w3.org/2000/svg">
<path d="M22.6846 8.95316C22.6846 8.95316 22.4893 7.58121 21.8877 6.9788C21.126 6.18594 20.2744 6.18206 19.8838 6.13542C17.0869 5.93332 12.8877 5.93332 12.8877 5.93332H12.8799C12.8799 5.93332 8.68066 5.93332 5.88379 6.13542C5.49316 6.18206 4.6416 6.18594 3.87988 6.9788C3.27832 7.58121 3.08691 8.95316 3.08691 8.95316C3.08691 8.95316 2.88379 10.5661 2.88379 12.1751V13.6831C2.88379 15.2921 3.08301 16.905 3.08301 16.905C3.08301 16.905 3.27832 18.277 3.87598 18.8794C4.6377 19.6722 5.6377 19.645 6.08301 19.7305C7.68457 19.8821 12.8838 19.9287 12.8838 19.9287C12.8838 19.9287 17.0869 19.921 19.8838 19.7227C20.2744 19.6761 21.126 19.6722 21.8877 18.8794C22.4893 18.277 22.6846 16.905 22.6846 16.905C22.6846 16.905 22.8838 15.296 22.8838 13.6831V12.1751C22.8838 10.5661 22.6846 8.95316 22.6846 8.95316ZM10.8174 15.5136V9.9209L16.2197 12.727L10.8174 15.5136Z" fill="#9CA3AF"/>
</svg>
