<svg width="128" height="128" viewBox="0 0 128 128" fill="none" xmlns="http://www.w3.org/2000/svg">
<rect width="128" height="128" rx="8" fill="#363636"/>
<rect x="21.5" y="15.5" width="4" height="4" fill="#FCFCFD"/>
<rect x="15.5" y="15.5" width="4" height="8" fill="#FCFCFD"/>
<rect width="4" height="4" transform="matrix(-1 0 0 1 106.5 15.5)" fill="#FCFCFD"/>
<rect width="4" height="8" transform="matrix(-1 0 0 1 112.5 15.5)" fill="#FCFCFD"/>
<rect x="106.5" y="111.5" width="4" height="4" transform="rotate(-180 106.5 111.5)" fill="#FCFCFD"/>
<rect x="112.5" y="111.5" width="4" height="8" transform="rotate(-180 112.5 111.5)" fill="#FCFCFD"/>
<rect width="4" height="4" transform="matrix(1 0 0 -1 21.5 111.5)" fill="#FCFCFD"/>
<rect width="4" height="8" transform="matrix(1 0 0 -1 15.5 111.5)" fill="#FCFCFD"/>
<path opacity="0.4" d="M52.894 84C47.992 84 44 79.9395 44 74.9509V65.0287C44 60.0503 47.98 56 52.874 56H75.106C80.01 56 84 60.0605 84 65.0511V74.9693C84 79.9497 80.02 84 75.126 84H73.246H52.894Z" fill="url(#paint0_linear_680_4877)"/>
<path d="M62.9096 44.4422L57.0916 50.1338C56.4916 50.722 56.4916 51.6687 57.0956 52.255C57.6996 52.8393 58.6736 52.8374 59.2736 52.2511L62.4596 49.1326V52.1225V68.9031C62.4596 69.731 63.1496 70.403 63.9996 70.403C64.8516 70.403 65.5396 69.731 65.5396 68.9031V49.1326L68.7256 52.2511C69.3256 52.8374 70.2996 52.8393 70.9036 52.255C71.2056 51.9608 71.3576 51.5771 71.3576 51.1914C71.3576 50.8097 71.2056 50.4259 70.9076 50.1338L65.0916 44.4422C64.8016 44.1597 64.4096 44 63.9996 44C63.5916 44 63.1996 44.1597 62.9096 44.4422" fill="url(#paint1_linear_680_4877)"/>
<defs>
<linearGradient id="paint0_linear_680_4877" x1="44" y1="70" x2="84" y2="70" gradientUnits="userSpaceOnUse">
<stop stop-color="#7DAD54"/>
<stop offset="1" stop-color="#85BA22"/>
</linearGradient>
<linearGradient id="paint1_linear_680_4877" x1="56.6421" y1="57.2015" x2="71.3576" y2="57.2015" gradientUnits="userSpaceOnUse">
<stop stop-color="#7DAD54"/>
<stop offset="1" stop-color="#85BA22"/>
</linearGradient>
</defs>
</svg>
